<!-- Generator: Adobe Illustrator 22.0.1, SVG Export Plug-In  -->
<svg version="1.1"
	 xmlns="http://www.w3.org/2000/svg" xmlns:xlink="http://www.w3.org/1999/xlink" xmlns:a="http://ns.adobe.com/AdobeSVGViewerExtensions/3.0/"
	 x="0px" y="0px" width="291.537px" height="109.242px" viewBox="0 0 291.537 109.242"
	 style="enable-background:new 0 0 291.537 109.242;" xml:space="preserve">
<style type="text/css">
	.st0{fill:url(#SVGID_1_);}
	.st1{fill:#AED36E;}
	.st2{fill:#151A48;}
	.st3{fill:none;}
	.st4{fill:url(#SVGID_2_);}
	.st5{fill:url(#SVGID_3_);}
	.st6{font-family:'Ubuntu';}
	.st7{font-size:14.4153px;}
	.st8{fill:url(#SVGID_4_);}
</style>
<defs>
</defs>
<g>
	<linearGradient id="SVGID_1_" gradientUnits="userSpaceOnUse" x1="24.4767" y1="30.1131" x2="13.7448" y2="35.1024">
		<stop  offset="0" style="stop-color:#AED36E"/>
		<stop  offset="1" style="stop-color:#7E9250"/>
	</linearGradient>
	<path class="st0" d="M12.69,29.274v14.507c0-7.478,5.174-12.449,11.681-12.449c0.172,0.002,0.33,0.042,0.499,0.051l1.902-8.361
		C21.509,23.158,15.671,24.894,12.69,29.274z"/>
	<path class="st1" d="M27.444,22.996c-0.221,0-0.448,0.021-0.671,0.027l-1.902,8.361c5.977,0.314,10.411,4.554,10.323,11.54v23.859
		c0,1.797,1.457,3.253,3.253,3.253h7.275V42.923C45.722,31.513,39.983,22.996,27.444,22.996z"/>
	<g>
		<path class="st2" d="M1.153,84.823c0.308-0.077,0.716-0.159,1.226-0.245c0.509-0.087,1.095-0.13,1.758-0.13
			c0.597,0,1.091,0.084,1.485,0.252c0.394,0.168,0.708,0.403,0.944,0.706c0.235,0.303,0.401,0.666,0.497,1.089
			s0.145,0.889,0.145,1.398v4.209H5.867v-3.921c0-0.461-0.031-0.855-0.094-1.182c-0.062-0.327-0.166-0.592-0.31-0.793
			c-0.145-0.202-0.337-0.349-0.577-0.44c-0.24-0.091-0.538-0.137-0.894-0.137c-0.145,0-0.293,0.005-0.447,0.015
			c-0.153,0.01-0.3,0.021-0.439,0.036s-0.265,0.031-0.375,0.051c-0.11,0.019-0.189,0.033-0.237,0.043v6.328H1.153V84.823z"/>
		<path class="st2" d="M15.269,91.886c-0.308,0.076-0.714,0.158-1.218,0.245c-0.505,0.086-1.089,0.129-1.752,0.129
			c-0.576,0-1.062-0.084-1.456-0.252c-0.394-0.168-0.711-0.406-0.951-0.714c-0.24-0.307-0.413-0.67-0.519-1.088
			c-0.106-0.418-0.159-0.882-0.159-1.392v-4.209h1.341v3.921c0,0.913,0.145,1.566,0.433,1.961c0.288,0.394,0.773,0.591,1.456,0.591
			c0.144,0,0.293-0.005,0.446-0.015c0.154-0.009,0.298-0.021,0.433-0.036c0.135-0.014,0.257-0.028,0.368-0.043
			c0.11-0.015,0.189-0.031,0.237-0.051v-6.328h1.341V91.886z"/>
		<path class="st2" d="M18.741,84.606h2.84v1.125h-2.84v3.459c0,0.375,0.029,0.685,0.087,0.93s0.144,0.438,0.259,0.577
			s0.26,0.237,0.433,0.295s0.375,0.087,0.605,0.087c0.404,0,0.729-0.046,0.974-0.137c0.245-0.092,0.415-0.156,0.512-0.195
			l0.259,1.11c-0.135,0.067-0.37,0.151-0.706,0.252c-0.337,0.102-0.721,0.151-1.153,0.151c-0.51,0-0.93-0.064-1.261-0.194
			c-0.332-0.13-0.599-0.324-0.801-0.584c-0.201-0.259-0.344-0.578-0.425-0.958c-0.082-0.38-0.123-0.819-0.123-1.319v-6.688
			l1.341-0.23V84.606z"/>
		<path class="st2" d="M25.989,84.448c0.115,0,0.247,0.007,0.396,0.021c0.148,0.015,0.296,0.034,0.439,0.058
			c0.145,0.024,0.276,0.048,0.396,0.072c0.12,0.023,0.209,0.046,0.267,0.064l-0.23,1.168c-0.105-0.038-0.281-0.084-0.526-0.137
			s-0.56-0.08-0.944-0.08c-0.25,0-0.497,0.027-0.742,0.08s-0.406,0.089-0.482,0.107v6.3h-1.341v-7.179
			c0.317-0.115,0.711-0.224,1.182-0.324C24.874,84.498,25.403,84.448,25.989,84.448z"/>
		<path class="st2" d="M29.453,83.251c-0.24,0-0.444-0.08-0.612-0.238c-0.169-0.158-0.253-0.372-0.253-0.642
			c0-0.269,0.084-0.482,0.253-0.642c0.168-0.158,0.372-0.237,0.612-0.237s0.444,0.079,0.612,0.237
			c0.168,0.159,0.253,0.373,0.253,0.642c0,0.27-0.085,0.483-0.253,0.642S29.693,83.251,29.453,83.251z M30.131,92.102H28.79v-7.496
			h1.341V92.102z"/>
		<path class="st2" d="M33.579,84.606h2.84v1.125h-2.84v3.459c0,0.375,0.029,0.685,0.087,0.93s0.144,0.438,0.259,0.577
			s0.26,0.237,0.433,0.295s0.375,0.087,0.605,0.087c0.404,0,0.729-0.046,0.974-0.137c0.245-0.092,0.415-0.156,0.512-0.195
			l0.259,1.11c-0.135,0.067-0.37,0.151-0.706,0.252c-0.337,0.102-0.721,0.151-1.153,0.151c-0.51,0-0.93-0.064-1.261-0.194
			c-0.332-0.13-0.599-0.324-0.801-0.584c-0.201-0.259-0.344-0.578-0.425-0.958c-0.082-0.38-0.123-0.819-0.123-1.319v-6.688
			l1.341-0.23V84.606z"/>
		<path class="st2" d="M38.723,83.251c-0.24,0-0.444-0.08-0.612-0.238c-0.169-0.158-0.253-0.372-0.253-0.642
			c0-0.269,0.084-0.482,0.253-0.642c0.168-0.158,0.372-0.237,0.612-0.237s0.444,0.079,0.612,0.237
			c0.168,0.159,0.253,0.373,0.253,0.642c0,0.27-0.085,0.483-0.253,0.642S38.963,83.251,38.723,83.251z M39.4,92.102H38.06v-7.496
			H39.4V92.102z"/>
		<path class="st2" d="M48.211,88.354c0,0.596-0.086,1.134-0.259,1.614c-0.174,0.481-0.416,0.895-0.729,1.24s-0.685,0.612-1.117,0.8
			s-0.903,0.281-1.412,0.281c-0.51,0-0.98-0.094-1.413-0.281s-0.805-0.454-1.117-0.8s-0.555-0.759-0.728-1.24
			c-0.174-0.48-0.26-1.019-0.26-1.614c0-0.586,0.086-1.122,0.26-1.607c0.173-0.485,0.415-0.9,0.728-1.247
			c0.312-0.346,0.685-0.612,1.117-0.8s0.903-0.281,1.413-0.281c0.509,0,0.979,0.094,1.412,0.281s0.805,0.454,1.117,0.8
			c0.312,0.347,0.555,0.762,0.729,1.247C48.125,87.232,48.211,87.768,48.211,88.354z M46.812,88.354
			c0-0.846-0.189-1.516-0.569-2.011c-0.379-0.495-0.896-0.742-1.549-0.742c-0.654,0-1.171,0.247-1.55,0.742
			c-0.38,0.495-0.569,1.165-0.569,2.011s0.189,1.517,0.569,2.011c0.379,0.495,0.896,0.742,1.55,0.742
			c0.653,0,1.17-0.247,1.549-0.742C46.623,89.871,46.812,89.2,46.812,88.354z"/>
		<path class="st2" d="M50.004,84.823c0.308-0.077,0.716-0.159,1.226-0.245c0.509-0.087,1.095-0.13,1.758-0.13
			c0.597,0,1.091,0.084,1.485,0.252c0.394,0.168,0.708,0.403,0.944,0.706c0.235,0.303,0.401,0.666,0.497,1.089
			s0.145,0.889,0.145,1.398v4.209h-1.341v-3.921c0-0.461-0.031-0.855-0.094-1.182c-0.062-0.327-0.166-0.592-0.31-0.793
			c-0.145-0.202-0.337-0.349-0.577-0.44c-0.24-0.091-0.538-0.137-0.894-0.137c-0.145,0-0.293,0.005-0.447,0.015
			c-0.153,0.01-0.3,0.021-0.439,0.036s-0.265,0.031-0.375,0.051c-0.11,0.019-0.189,0.033-0.237,0.043v6.328h-1.341V84.823z"/>
		<path class="st2" d="M68.08,88.354c0,0.596-0.086,1.134-0.259,1.614c-0.174,0.481-0.416,0.895-0.729,1.24s-0.685,0.612-1.117,0.8
			s-0.903,0.281-1.412,0.281c-0.51,0-0.98-0.094-1.413-0.281s-0.805-0.454-1.117-0.8s-0.555-0.759-0.728-1.24
			c-0.174-0.48-0.26-1.019-0.26-1.614c0-0.586,0.086-1.122,0.26-1.607c0.173-0.485,0.415-0.9,0.728-1.247
			c0.312-0.346,0.685-0.612,1.117-0.8s0.903-0.281,1.413-0.281c0.509,0,0.979,0.094,1.412,0.281s0.805,0.454,1.117,0.8
			c0.312,0.347,0.555,0.762,0.729,1.247C67.994,87.232,68.08,87.768,68.08,88.354z M66.682,88.354c0-0.846-0.189-1.516-0.569-2.011
			c-0.379-0.495-0.896-0.742-1.549-0.742c-0.654,0-1.171,0.247-1.55,0.742c-0.38,0.495-0.569,1.165-0.569,2.011
			s0.189,1.517,0.569,2.011c0.379,0.495,0.896,0.742,1.55,0.742c0.653,0,1.17-0.247,1.549-0.742
			C66.492,89.871,66.682,89.2,66.682,88.354z"/>
		<path class="st2" d="M75.836,91.886c-0.308,0.076-0.714,0.158-1.218,0.245c-0.505,0.086-1.089,0.129-1.752,0.129
			c-0.576,0-1.062-0.084-1.456-0.252c-0.394-0.168-0.711-0.406-0.951-0.714c-0.24-0.307-0.413-0.67-0.519-1.088
			c-0.106-0.418-0.159-0.882-0.159-1.392v-4.209h1.341v3.921c0,0.913,0.145,1.566,0.433,1.961c0.288,0.394,0.773,0.591,1.456,0.591
			c0.144,0,0.293-0.005,0.446-0.015c0.154-0.009,0.298-0.021,0.433-0.036c0.135-0.014,0.257-0.028,0.368-0.043
			c0.11-0.015,0.189-0.031,0.237-0.051v-6.328h1.341V91.886z"/>
		<path class="st2" d="M79.309,84.606h2.84v1.125h-2.84v3.459c0,0.375,0.029,0.685,0.087,0.93s0.144,0.438,0.259,0.577
			s0.26,0.237,0.433,0.295s0.375,0.087,0.605,0.087c0.404,0,0.729-0.046,0.974-0.137c0.245-0.092,0.415-0.156,0.512-0.195
			l0.259,1.11c-0.135,0.067-0.37,0.151-0.706,0.252c-0.337,0.102-0.721,0.151-1.153,0.151c-0.51,0-0.93-0.064-1.261-0.194
			c-0.332-0.13-0.599-0.324-0.801-0.584c-0.201-0.259-0.344-0.578-0.425-0.958c-0.082-0.38-0.123-0.819-0.123-1.319v-6.688
			l1.341-0.23V84.606z"/>
		<path class="st2" d="M86.557,84.448c0.115,0,0.247,0.007,0.396,0.021c0.148,0.015,0.296,0.034,0.439,0.058
			c0.145,0.024,0.276,0.048,0.396,0.072c0.12,0.023,0.209,0.046,0.267,0.064l-0.23,1.168c-0.105-0.038-0.281-0.084-0.526-0.137
			s-0.56-0.08-0.944-0.08c-0.25,0-0.497,0.027-0.742,0.08s-0.406,0.089-0.482,0.107v6.3h-1.341v-7.179
			c0.317-0.115,0.711-0.224,1.182-0.324C85.441,84.498,85.971,84.448,86.557,84.448z"/>
		<path class="st2" d="M88.75,88.369c0-0.663,0.096-1.242,0.288-1.737s0.447-0.905,0.764-1.232c0.317-0.326,0.683-0.571,1.096-0.735
			c0.413-0.163,0.836-0.245,1.269-0.245c1.01,0,1.783,0.315,2.321,0.944c0.538,0.63,0.807,1.588,0.807,2.876
			c0,0.058,0,0.132,0,0.224c0,0.091-0.005,0.175-0.014,0.252h-5.132c0.058,0.778,0.283,1.369,0.677,1.773
			c0.395,0.403,1.01,0.605,1.846,0.605c0.471,0,0.867-0.041,1.189-0.123c0.321-0.081,0.564-0.16,0.728-0.237l0.188,1.124
			c-0.163,0.087-0.449,0.178-0.857,0.274c-0.409,0.096-0.872,0.144-1.392,0.144c-0.653,0-1.218-0.099-1.693-0.295
			c-0.476-0.197-0.867-0.469-1.175-0.814c-0.308-0.347-0.536-0.757-0.685-1.233C88.824,89.457,88.75,88.936,88.75,88.369z
			 M93.896,87.633c0.009-0.605-0.143-1.103-0.454-1.492c-0.312-0.389-0.743-0.584-1.291-0.584c-0.308,0-0.579,0.061-0.814,0.181
			s-0.435,0.276-0.598,0.469c-0.164,0.192-0.291,0.413-0.382,0.663c-0.092,0.25-0.151,0.504-0.181,0.764H93.896z"/>
		<path class="st2" d="M99.508,84.418c0.538,0,0.992,0.07,1.362,0.209c0.369,0.14,0.668,0.337,0.894,0.592
			c0.226,0.254,0.387,0.557,0.482,0.907c0.097,0.352,0.145,0.738,0.145,1.161v4.685c-0.115,0.02-0.276,0.046-0.482,0.079
			c-0.207,0.034-0.44,0.065-0.699,0.094c-0.26,0.029-0.541,0.056-0.844,0.079c-0.303,0.024-0.604,0.036-0.9,0.036
			c-0.424,0-0.812-0.043-1.168-0.129c-0.355-0.087-0.663-0.224-0.923-0.411s-0.461-0.435-0.605-0.742
			c-0.144-0.308-0.216-0.678-0.216-1.11c0-0.413,0.084-0.769,0.252-1.066s0.396-0.538,0.685-0.721s0.625-0.317,1.01-0.404
			c0.384-0.086,0.787-0.13,1.21-0.13c0.135,0,0.274,0.008,0.419,0.022c0.144,0.014,0.28,0.033,0.41,0.058
			c0.13,0.023,0.243,0.045,0.339,0.064s0.163,0.034,0.202,0.043V87.36c0-0.222-0.024-0.44-0.072-0.656
			c-0.048-0.217-0.135-0.408-0.26-0.577c-0.125-0.168-0.295-0.303-0.512-0.403c-0.216-0.101-0.497-0.151-0.843-0.151
			c-0.442,0-0.829,0.031-1.161,0.094c-0.331,0.062-0.579,0.128-0.742,0.194l-0.158-1.109c0.173-0.077,0.461-0.151,0.865-0.224
			C98.6,84.455,99.037,84.418,99.508,84.418z M99.623,91.136c0.317,0,0.598-0.007,0.843-0.021s0.449-0.041,0.613-0.079v-2.234
			c-0.097-0.048-0.253-0.089-0.469-0.123c-0.216-0.033-0.479-0.05-0.785-0.05c-0.202,0-0.416,0.014-0.642,0.043
			c-0.227,0.028-0.433,0.089-0.62,0.18c-0.188,0.092-0.344,0.217-0.469,0.375c-0.125,0.159-0.188,0.368-0.188,0.627
			c0,0.48,0.154,0.814,0.462,1.002C98.676,91.042,99.095,91.136,99.623,91.136z"/>
		<path class="st2" d="M107.785,92.275c-0.605,0-1.137-0.096-1.593-0.288c-0.457-0.192-0.841-0.461-1.153-0.808
			c-0.312-0.346-0.546-0.757-0.699-1.232c-0.154-0.476-0.23-1.002-0.23-1.578c0-0.577,0.084-1.105,0.252-1.586
			s0.406-0.896,0.714-1.247c0.308-0.351,0.685-0.624,1.132-0.821c0.446-0.197,0.943-0.296,1.491-0.296
			c0.337,0,0.673,0.029,1.01,0.087c0.336,0.058,0.658,0.149,0.966,0.273l-0.303,1.139c-0.202-0.096-0.436-0.173-0.699-0.23
			c-0.265-0.058-0.546-0.086-0.844-0.086c-0.749,0-1.324,0.235-1.723,0.706s-0.598,1.158-0.598,2.062
			c0,0.403,0.045,0.773,0.137,1.109c0.091,0.337,0.235,0.625,0.433,0.865c0.196,0.24,0.449,0.426,0.757,0.555
			c0.308,0.13,0.682,0.195,1.124,0.195c0.355,0,0.678-0.034,0.966-0.102c0.288-0.066,0.514-0.139,0.678-0.216l0.188,1.124
			c-0.077,0.049-0.188,0.094-0.332,0.138c-0.144,0.043-0.308,0.081-0.49,0.115c-0.183,0.033-0.377,0.062-0.583,0.086
			C108.177,92.263,107.978,92.275,107.785,92.275z"/>
		<path class="st2" d="M111.158,92.102V81.146l1.341-0.23v3.835c0.249-0.096,0.517-0.171,0.8-0.224s0.564-0.079,0.843-0.079
			c0.597,0,1.091,0.084,1.485,0.252c0.394,0.168,0.708,0.403,0.944,0.706c0.235,0.303,0.401,0.666,0.497,1.089
			s0.145,0.889,0.145,1.398v4.209h-1.341v-3.921c0-0.461-0.031-0.855-0.094-1.182c-0.062-0.327-0.166-0.592-0.31-0.793
			c-0.145-0.202-0.337-0.349-0.577-0.44c-0.24-0.091-0.538-0.137-0.894-0.137c-0.145,0-0.293,0.01-0.447,0.029
			c-0.153,0.02-0.3,0.041-0.439,0.064c-0.14,0.024-0.265,0.051-0.375,0.079c-0.11,0.029-0.189,0.054-0.237,0.072v6.228H111.158z"/>
		<path class="st2" d="M123.829,84.606h2.84v1.125h-2.84v3.459c0,0.375,0.029,0.685,0.087,0.93s0.144,0.438,0.259,0.577
			s0.26,0.237,0.433,0.295s0.375,0.087,0.605,0.087c0.404,0,0.729-0.046,0.974-0.137c0.245-0.092,0.415-0.156,0.512-0.195
			l0.259,1.11c-0.135,0.067-0.37,0.151-0.706,0.252c-0.337,0.102-0.721,0.151-1.153,0.151c-0.51,0-0.93-0.064-1.261-0.194
			c-0.332-0.13-0.599-0.324-0.801-0.584c-0.201-0.259-0.344-0.578-0.425-0.958c-0.082-0.38-0.123-0.819-0.123-1.319v-6.688
			l1.341-0.23V84.606z"/>
		<path class="st2" d="M134.766,88.354c0,0.596-0.086,1.134-0.259,1.614c-0.174,0.481-0.416,0.895-0.729,1.24
			s-0.685,0.612-1.117,0.8s-0.903,0.281-1.412,0.281c-0.51,0-0.98-0.094-1.413-0.281s-0.805-0.454-1.117-0.8
			s-0.555-0.759-0.728-1.24c-0.174-0.48-0.26-1.019-0.26-1.614c0-0.586,0.086-1.122,0.26-1.607c0.173-0.485,0.415-0.9,0.728-1.247
			c0.312-0.346,0.685-0.612,1.117-0.8s0.903-0.281,1.413-0.281c0.509,0,0.979,0.094,1.412,0.281s0.805,0.454,1.117,0.8
			c0.312,0.347,0.555,0.762,0.729,1.247C134.68,87.232,134.766,87.768,134.766,88.354z M133.367,88.354
			c0-0.846-0.189-1.516-0.569-2.011c-0.379-0.495-0.896-0.742-1.549-0.742c-0.654,0-1.171,0.247-1.55,0.742
			c-0.38,0.495-0.569,1.165-0.569,2.011s0.189,1.517,0.569,2.011c0.379,0.495,0.896,0.742,1.55,0.742
			c0.653,0,1.17-0.247,1.549-0.742C133.178,89.871,133.367,89.2,133.367,88.354z"/>
		<path class="st2" d="M145.808,91.886c-0.308,0.076-0.714,0.158-1.218,0.245c-0.505,0.086-1.089,0.129-1.752,0.129
			c-0.576,0-1.062-0.084-1.456-0.252c-0.394-0.168-0.711-0.406-0.951-0.714c-0.24-0.307-0.413-0.67-0.519-1.088
			c-0.106-0.418-0.159-0.882-0.159-1.392v-4.209h1.341v3.921c0,0.913,0.145,1.566,0.433,1.961c0.288,0.394,0.773,0.591,1.456,0.591
			c0.144,0,0.293-0.005,0.446-0.015c0.154-0.009,0.298-0.021,0.433-0.036c0.135-0.014,0.257-0.028,0.368-0.043
			c0.11-0.015,0.189-0.031,0.237-0.051v-6.328h1.341V91.886z"/>
		<path class="st2" d="M147.994,84.823c0.308-0.077,0.716-0.159,1.226-0.245c0.509-0.087,1.095-0.13,1.758-0.13
			c0.597,0,1.091,0.084,1.485,0.252c0.394,0.168,0.708,0.403,0.944,0.706c0.235,0.303,0.401,0.666,0.497,1.089
			s0.145,0.889,0.145,1.398v4.209h-1.341v-3.921c0-0.461-0.031-0.855-0.094-1.182c-0.062-0.327-0.166-0.592-0.31-0.793
			c-0.145-0.202-0.337-0.349-0.577-0.44c-0.24-0.091-0.538-0.137-0.894-0.137c-0.145,0-0.293,0.005-0.447,0.015
			c-0.153,0.01-0.3,0.021-0.439,0.036s-0.265,0.031-0.375,0.051c-0.11,0.019-0.189,0.033-0.237,0.043v6.328h-1.341V84.823z"/>
		<path class="st2" d="M161.028,81.146l1.34-0.23v10.971c-0.308,0.086-0.701,0.173-1.182,0.259c-0.48,0.087-1.033,0.13-1.657,0.13
			c-0.577,0-1.096-0.092-1.558-0.273c-0.461-0.183-0.855-0.442-1.182-0.778c-0.327-0.337-0.579-0.747-0.757-1.233
			c-0.178-0.484-0.267-1.03-0.267-1.636c0-0.576,0.074-1.104,0.224-1.586c0.148-0.48,0.367-0.894,0.655-1.239
			s0.642-0.615,1.06-0.808c0.418-0.191,0.896-0.288,1.435-0.288c0.433,0,0.814,0.058,1.146,0.173
			c0.332,0.115,0.579,0.226,0.743,0.332V81.146z M161.028,86.192c-0.164-0.135-0.399-0.265-0.707-0.39
			c-0.308-0.124-0.644-0.188-1.009-0.188c-0.385,0-0.714,0.07-0.987,0.209c-0.274,0.14-0.497,0.332-0.67,0.577
			c-0.174,0.245-0.299,0.536-0.375,0.872c-0.077,0.337-0.115,0.697-0.115,1.081c0,0.875,0.216,1.55,0.648,2.025
			s1.009,0.714,1.729,0.714c0.365,0,0.671-0.017,0.916-0.051c0.245-0.033,0.435-0.069,0.569-0.108V86.192z"/>
		<path class="st2" d="M164.174,88.369c0-0.663,0.096-1.242,0.288-1.737s0.447-0.905,0.764-1.232
			c0.317-0.326,0.683-0.571,1.096-0.735c0.413-0.163,0.836-0.245,1.269-0.245c1.01,0,1.783,0.315,2.321,0.944
			c0.538,0.63,0.807,1.588,0.807,2.876c0,0.058,0,0.132,0,0.224c0,0.091-0.005,0.175-0.014,0.252h-5.132
			c0.058,0.778,0.283,1.369,0.677,1.773c0.395,0.403,1.01,0.605,1.846,0.605c0.471,0,0.867-0.041,1.189-0.123
			c0.321-0.081,0.564-0.16,0.728-0.237l0.188,1.124c-0.163,0.087-0.449,0.178-0.857,0.274c-0.409,0.096-0.872,0.144-1.392,0.144
			c-0.653,0-1.218-0.099-1.693-0.295c-0.476-0.197-0.867-0.469-1.175-0.814c-0.308-0.347-0.536-0.757-0.685-1.233
			C164.248,89.457,164.174,88.936,164.174,88.369z M169.32,87.633c0.009-0.605-0.143-1.103-0.454-1.492
			c-0.312-0.389-0.743-0.584-1.291-0.584c-0.308,0-0.579,0.061-0.814,0.181s-0.435,0.276-0.598,0.469
			c-0.164,0.192-0.291,0.413-0.382,0.663c-0.092,0.25-0.151,0.504-0.181,0.764H169.32z"/>
		<path class="st2" d="M175.294,84.448c0.115,0,0.247,0.007,0.396,0.021c0.148,0.015,0.296,0.034,0.439,0.058
			c0.145,0.024,0.276,0.048,0.396,0.072c0.12,0.023,0.209,0.046,0.267,0.064l-0.23,1.168c-0.105-0.038-0.281-0.084-0.526-0.137
			s-0.56-0.08-0.944-0.08c-0.25,0-0.497,0.027-0.742,0.08s-0.406,0.089-0.482,0.107v6.3h-1.341v-7.179
			c0.317-0.115,0.711-0.224,1.182-0.324C174.179,84.498,174.708,84.448,175.294,84.448z"/>
		<path class="st2" d="M182.612,91.352c-0.115,0.077-0.339,0.176-0.67,0.296c-0.332,0.12-0.719,0.181-1.161,0.181
			c-0.451,0-0.877-0.072-1.275-0.217c-0.398-0.144-0.747-0.367-1.045-0.67s-0.533-0.68-0.706-1.132
			c-0.174-0.451-0.26-0.989-0.26-1.614c0-0.548,0.081-1.05,0.245-1.507c0.163-0.456,0.401-0.851,0.713-1.182
			c0.312-0.332,0.694-0.591,1.146-0.778c0.451-0.188,0.961-0.281,1.528-0.281c0.624,0,1.17,0.046,1.636,0.137
			c0.466,0.092,0.857,0.176,1.175,0.252v6.689c0,1.152-0.298,1.989-0.894,2.508s-1.499,0.778-2.71,0.778
			c-0.471,0-0.916-0.038-1.334-0.115s-0.78-0.168-1.088-0.273l0.245-1.168c0.269,0.105,0.598,0.199,0.987,0.281
			c0.39,0.081,0.795,0.122,1.218,0.122c0.798,0,1.372-0.158,1.723-0.476s0.526-0.821,0.526-1.514V91.352z M182.598,85.789
			c-0.135-0.039-0.314-0.075-0.54-0.108c-0.227-0.034-0.531-0.051-0.916-0.051c-0.721,0-1.275,0.235-1.665,0.707
			c-0.389,0.471-0.583,1.095-0.583,1.873c0,0.433,0.055,0.803,0.165,1.11s0.26,0.562,0.447,0.764
			c0.188,0.202,0.403,0.352,0.648,0.447c0.245,0.097,0.498,0.145,0.757,0.145c0.355,0,0.683-0.051,0.98-0.151
			c0.298-0.102,0.533-0.219,0.706-0.354V85.789z"/>
		<path class="st2" d="M188.893,84.448c0.115,0,0.247,0.007,0.396,0.021c0.148,0.015,0.296,0.034,0.439,0.058
			c0.145,0.024,0.276,0.048,0.396,0.072c0.12,0.023,0.209,0.046,0.267,0.064l-0.23,1.168c-0.105-0.038-0.281-0.084-0.526-0.137
			s-0.56-0.08-0.944-0.08c-0.25,0-0.497,0.027-0.742,0.08s-0.406,0.089-0.482,0.107v6.3h-1.341v-7.179
			c0.317-0.115,0.711-0.224,1.182-0.324C187.777,84.498,188.307,84.448,188.893,84.448z"/>
		<path class="st2" d="M193.991,84.418c0.538,0,0.992,0.07,1.362,0.209c0.369,0.14,0.668,0.337,0.894,0.592
			c0.226,0.254,0.387,0.557,0.482,0.907c0.097,0.352,0.145,0.738,0.145,1.161v4.685c-0.115,0.02-0.276,0.046-0.482,0.079
			c-0.207,0.034-0.44,0.065-0.699,0.094c-0.26,0.029-0.541,0.056-0.844,0.079c-0.303,0.024-0.604,0.036-0.9,0.036
			c-0.424,0-0.812-0.043-1.168-0.129c-0.355-0.087-0.663-0.224-0.923-0.411s-0.461-0.435-0.605-0.742
			c-0.144-0.308-0.216-0.678-0.216-1.11c0-0.413,0.084-0.769,0.252-1.066s0.396-0.538,0.685-0.721s0.625-0.317,1.01-0.404
			c0.384-0.086,0.787-0.13,1.21-0.13c0.135,0,0.274,0.008,0.419,0.022c0.144,0.014,0.28,0.033,0.41,0.058
			c0.13,0.023,0.243,0.045,0.339,0.064s0.163,0.034,0.202,0.043V87.36c0-0.222-0.024-0.44-0.072-0.656
			c-0.048-0.217-0.135-0.408-0.26-0.577c-0.125-0.168-0.295-0.303-0.512-0.403c-0.216-0.101-0.497-0.151-0.843-0.151
			c-0.442,0-0.829,0.031-1.161,0.094c-0.331,0.062-0.579,0.128-0.742,0.194l-0.158-1.109c0.173-0.077,0.461-0.151,0.865-0.224
			C193.083,84.455,193.521,84.418,193.991,84.418z M194.106,91.136c0.317,0,0.598-0.007,0.843-0.021s0.449-0.041,0.613-0.079v-2.234
			c-0.097-0.048-0.253-0.089-0.469-0.123c-0.216-0.033-0.479-0.05-0.785-0.05c-0.202,0-0.416,0.014-0.642,0.043
			c-0.227,0.028-0.433,0.089-0.62,0.18c-0.188,0.092-0.344,0.217-0.469,0.375c-0.125,0.159-0.188,0.368-0.188,0.627
			c0,0.48,0.154,0.814,0.462,1.002C193.159,91.042,193.578,91.136,194.106,91.136z"/>
		<path class="st2" d="M203.879,81.146l1.34-0.23v10.971c-0.308,0.086-0.701,0.173-1.182,0.259c-0.48,0.087-1.033,0.13-1.657,0.13
			c-0.577,0-1.096-0.092-1.558-0.273c-0.461-0.183-0.855-0.442-1.182-0.778c-0.327-0.337-0.579-0.747-0.757-1.233
			c-0.178-0.484-0.267-1.03-0.267-1.636c0-0.576,0.074-1.104,0.224-1.586c0.148-0.48,0.367-0.894,0.655-1.239
			s0.642-0.615,1.06-0.808c0.418-0.191,0.896-0.288,1.435-0.288c0.433,0,0.814,0.058,1.146,0.173
			c0.332,0.115,0.579,0.226,0.743,0.332V81.146z M203.879,86.192c-0.164-0.135-0.399-0.265-0.707-0.39
			c-0.308-0.124-0.644-0.188-1.009-0.188c-0.385,0-0.714,0.07-0.987,0.209c-0.274,0.14-0.497,0.332-0.67,0.577
			c-0.174,0.245-0.299,0.536-0.375,0.872c-0.077,0.337-0.115,0.697-0.115,1.081c0,0.875,0.216,1.55,0.648,2.025
			s1.009,0.714,1.729,0.714c0.365,0,0.671-0.017,0.916-0.051c0.245-0.033,0.435-0.069,0.569-0.108V86.192z"/>
		<path class="st2" d="M209.197,91.136c0.548,0,0.954-0.072,1.218-0.216c0.265-0.145,0.396-0.375,0.396-0.692
			c0-0.326-0.13-0.586-0.389-0.778c-0.26-0.192-0.688-0.408-1.283-0.648c-0.288-0.115-0.564-0.233-0.829-0.354
			s-0.492-0.262-0.685-0.425c-0.192-0.164-0.346-0.36-0.461-0.592c-0.115-0.23-0.173-0.514-0.173-0.851
			c0-0.663,0.244-1.188,0.734-1.578c0.49-0.389,1.158-0.584,2.004-0.584c0.212,0,0.423,0.013,0.635,0.036
			c0.211,0.024,0.408,0.053,0.591,0.087c0.183,0.033,0.344,0.069,0.482,0.107c0.14,0.039,0.248,0.072,0.325,0.102l-0.245,1.153
			c-0.145-0.077-0.37-0.156-0.678-0.238c-0.308-0.081-0.678-0.122-1.11-0.122c-0.375,0-0.701,0.074-0.98,0.223
			c-0.278,0.149-0.418,0.383-0.418,0.699c0,0.164,0.031,0.308,0.094,0.433s0.159,0.238,0.289,0.339
			c0.129,0.101,0.29,0.194,0.482,0.281c0.192,0.086,0.423,0.178,0.692,0.273c0.355,0.135,0.672,0.267,0.951,0.396
			c0.278,0.13,0.517,0.281,0.713,0.454c0.197,0.173,0.349,0.382,0.454,0.627c0.106,0.245,0.159,0.546,0.159,0.901
			c0,0.692-0.258,1.216-0.771,1.571s-1.247,0.533-2.198,0.533c-0.663,0-1.182-0.056-1.557-0.166s-0.63-0.194-0.765-0.252
			l0.245-1.153c0.154,0.058,0.399,0.145,0.735,0.26C208.193,91.079,208.64,91.136,209.197,91.136z"/>
		<path class="st2" d="M1.816,97.666c-0.24,0-0.444-0.08-0.612-0.238c-0.169-0.158-0.253-0.372-0.253-0.642
			c0-0.269,0.084-0.482,0.253-0.642c0.168-0.158,0.372-0.237,0.612-0.237s0.444,0.079,0.612,0.237
			c0.168,0.159,0.253,0.373,0.253,0.642c0,0.27-0.085,0.483-0.253,0.642S2.057,97.666,1.816,97.666z M2.494,106.517H1.153v-7.496
			h1.341V106.517z"/>
		<path class="st2" d="M4.681,99.238c0.308-0.077,0.716-0.159,1.226-0.245c0.509-0.087,1.095-0.13,1.758-0.13
			c0.597,0,1.091,0.084,1.485,0.252c0.394,0.168,0.708,0.403,0.944,0.706c0.235,0.303,0.401,0.666,0.497,1.089
			s0.145,0.889,0.145,1.398v4.209H9.395v-3.921c0-0.461-0.031-0.855-0.094-1.182c-0.062-0.327-0.166-0.592-0.31-0.793
			c-0.145-0.202-0.337-0.349-0.577-0.44c-0.24-0.091-0.538-0.137-0.894-0.137c-0.145,0-0.293,0.005-0.447,0.015
			c-0.153,0.01-0.3,0.021-0.439,0.036s-0.265,0.031-0.375,0.051c-0.11,0.019-0.189,0.033-0.237,0.043v6.328H4.681V99.238z"/>
		<path class="st2" d="M17.885,105.551c0.548,0,0.954-0.072,1.218-0.216c0.265-0.145,0.396-0.375,0.396-0.692
			c0-0.326-0.13-0.586-0.389-0.778c-0.26-0.192-0.688-0.408-1.283-0.648c-0.288-0.115-0.564-0.233-0.829-0.354
			s-0.492-0.262-0.685-0.425c-0.192-0.164-0.346-0.36-0.461-0.592c-0.115-0.23-0.173-0.514-0.173-0.851
			c0-0.663,0.244-1.188,0.734-1.578c0.49-0.389,1.158-0.584,2.004-0.584c0.212,0,0.423,0.013,0.635,0.036
			c0.211,0.024,0.408,0.053,0.591,0.087c0.183,0.033,0.344,0.069,0.482,0.107c0.14,0.039,0.248,0.072,0.325,0.102l-0.245,1.153
			c-0.145-0.077-0.37-0.156-0.678-0.238c-0.308-0.081-0.678-0.122-1.11-0.122c-0.375,0-0.701,0.074-0.98,0.223
			c-0.278,0.149-0.418,0.383-0.418,0.699c0,0.164,0.031,0.308,0.094,0.433s0.159,0.238,0.289,0.339
			c0.129,0.101,0.29,0.194,0.482,0.281c0.192,0.086,0.423,0.178,0.692,0.273c0.355,0.135,0.672,0.267,0.951,0.396
			c0.278,0.13,0.517,0.281,0.713,0.454c0.197,0.173,0.349,0.382,0.454,0.627c0.106,0.245,0.159,0.546,0.159,0.901
			c0,0.692-0.258,1.216-0.771,1.571s-1.247,0.533-2.198,0.533c-0.663,0-1.182-0.056-1.557-0.166s-0.63-0.194-0.765-0.252
			l0.245-1.153c0.154,0.058,0.399,0.145,0.735,0.26C16.881,105.494,17.327,105.551,17.885,105.551z"/>
		<path class="st2" d="M29.08,102.784c0,0.567-0.075,1.091-0.224,1.571c-0.149,0.48-0.368,0.894-0.656,1.239
			c-0.288,0.347-0.642,0.615-1.06,0.808s-0.896,0.288-1.435,0.288c-0.432,0-0.814-0.058-1.146-0.173
			c-0.332-0.115-0.579-0.226-0.742-0.332v2.999h-1.341v-9.933c0.317-0.076,0.714-0.16,1.189-0.252
			c0.476-0.091,1.025-0.137,1.65-0.137c0.576,0,1.096,0.091,1.557,0.273s0.855,0.442,1.183,0.778
			c0.326,0.337,0.578,0.748,0.756,1.232C28.99,101.632,29.08,102.178,29.08,102.784z M27.682,102.784
			c0-0.875-0.217-1.547-0.649-2.019c-0.432-0.471-1.009-0.706-1.729-0.706c-0.403,0-0.719,0.015-0.944,0.043
			c-0.226,0.029-0.406,0.062-0.54,0.102v4.728c0.163,0.135,0.398,0.265,0.706,0.39s0.644,0.188,1.009,0.188
			c0.385,0,0.714-0.07,0.987-0.209c0.274-0.14,0.498-0.332,0.671-0.577s0.298-0.533,0.375-0.864
			C27.643,103.526,27.682,103.168,27.682,102.784z"/>
		<path class="st2" d="M37.5,102.769c0,0.596-0.086,1.134-0.259,1.614c-0.174,0.481-0.416,0.895-0.729,1.24s-0.685,0.612-1.117,0.8
			s-0.903,0.281-1.412,0.281c-0.51,0-0.98-0.094-1.413-0.281s-0.805-0.454-1.117-0.8s-0.555-0.759-0.728-1.24
			c-0.174-0.48-0.26-1.019-0.26-1.614c0-0.586,0.086-1.122,0.26-1.607c0.173-0.485,0.415-0.9,0.728-1.247
			c0.312-0.346,0.685-0.612,1.117-0.8s0.903-0.281,1.413-0.281c0.509,0,0.979,0.094,1.412,0.281s0.805,0.454,1.117,0.8
			c0.312,0.347,0.555,0.762,0.729,1.247C37.414,101.647,37.5,102.183,37.5,102.769z M36.102,102.769
			c0-0.846-0.189-1.516-0.569-2.011c-0.379-0.495-0.896-0.742-1.549-0.742c-0.654,0-1.171,0.247-1.55,0.742
			c-0.38,0.495-0.569,1.165-0.569,2.011s0.189,1.517,0.569,2.011c0.379,0.495,0.896,0.742,1.55,0.742
			c0.653,0,1.17-0.247,1.549-0.742C35.912,104.286,36.102,103.615,36.102,102.769z"/>
		<path class="st2" d="M42.062,98.863c0.115,0,0.247,0.007,0.396,0.021c0.148,0.015,0.296,0.034,0.439,0.058
			c0.145,0.024,0.276,0.048,0.396,0.072c0.12,0.023,0.209,0.046,0.267,0.064l-0.23,1.168c-0.105-0.038-0.281-0.084-0.526-0.137
			s-0.56-0.08-0.944-0.08c-0.25,0-0.497,0.027-0.742,0.08s-0.406,0.089-0.482,0.107v6.3h-1.341v-7.179
			c0.317-0.115,0.711-0.224,1.182-0.324C40.946,98.913,41.476,98.863,42.062,98.863z"/>
		<path class="st2" d="M46.159,99.021h2.84v1.125h-2.84v3.459c0,0.375,0.029,0.685,0.087,0.93s0.144,0.438,0.259,0.577
			s0.26,0.237,0.433,0.295s0.375,0.087,0.605,0.087c0.404,0,0.729-0.046,0.974-0.137c0.245-0.092,0.415-0.156,0.512-0.195
			l0.259,1.11c-0.135,0.067-0.37,0.151-0.706,0.252c-0.337,0.102-0.721,0.151-1.153,0.151c-0.51,0-0.93-0.064-1.261-0.194
			c-0.332-0.13-0.599-0.324-0.801-0.584c-0.201-0.259-0.344-0.578-0.425-0.958c-0.082-0.38-0.123-0.819-0.123-1.319v-6.688
			l1.341-0.23V99.021z"/>
		<path class="st2" d="M52.673,105.551c0.548,0,0.954-0.072,1.218-0.216c0.265-0.145,0.396-0.375,0.396-0.692
			c0-0.326-0.13-0.586-0.389-0.778c-0.26-0.192-0.688-0.408-1.283-0.648c-0.288-0.115-0.564-0.233-0.829-0.354
			s-0.492-0.262-0.685-0.425c-0.192-0.164-0.346-0.36-0.461-0.592c-0.115-0.23-0.173-0.514-0.173-0.851
			c0-0.663,0.244-1.188,0.734-1.578c0.49-0.389,1.158-0.584,2.004-0.584c0.212,0,0.423,0.013,0.635,0.036
			c0.211,0.024,0.408,0.053,0.591,0.087c0.183,0.033,0.344,0.069,0.482,0.107c0.14,0.039,0.248,0.072,0.325,0.102l-0.245,1.153
			c-0.145-0.077-0.37-0.156-0.678-0.238c-0.308-0.081-0.678-0.122-1.11-0.122c-0.375,0-0.701,0.074-0.98,0.223
			c-0.278,0.149-0.418,0.383-0.418,0.699c0,0.164,0.031,0.308,0.094,0.433s0.159,0.238,0.289,0.339
			c0.129,0.101,0.29,0.194,0.482,0.281c0.192,0.086,0.423,0.178,0.692,0.273c0.355,0.135,0.672,0.267,0.951,0.396
			c0.278,0.13,0.517,0.281,0.713,0.454c0.197,0.173,0.349,0.382,0.454,0.627c0.106,0.245,0.159,0.546,0.159,0.901
			c0,0.692-0.258,1.216-0.771,1.571s-1.247,0.533-2.198,0.533c-0.663,0-1.182-0.056-1.557-0.166s-0.63-0.194-0.765-0.252
			l0.245-1.153c0.154,0.058,0.399,0.145,0.735,0.26C51.669,105.494,52.115,105.551,52.673,105.551z"/>
		<path class="st2" d="M62.287,105.551c0.548,0,0.954-0.072,1.218-0.216c0.265-0.145,0.396-0.375,0.396-0.692
			c0-0.326-0.13-0.586-0.389-0.778c-0.26-0.192-0.688-0.408-1.283-0.648c-0.288-0.115-0.564-0.233-0.829-0.354
			s-0.492-0.262-0.685-0.425c-0.192-0.164-0.346-0.36-0.461-0.592c-0.115-0.23-0.173-0.514-0.173-0.851
			c0-0.663,0.244-1.188,0.734-1.578c0.49-0.389,1.158-0.584,2.004-0.584c0.212,0,0.423,0.013,0.635,0.036
			c0.211,0.024,0.408,0.053,0.591,0.087c0.183,0.033,0.344,0.069,0.482,0.107c0.14,0.039,0.248,0.072,0.325,0.102l-0.245,1.153
			c-0.145-0.077-0.37-0.156-0.678-0.238c-0.308-0.081-0.678-0.122-1.11-0.122c-0.375,0-0.701,0.074-0.98,0.223
			c-0.278,0.149-0.418,0.383-0.418,0.699c0,0.164,0.031,0.308,0.094,0.433s0.159,0.238,0.289,0.339
			c0.129,0.101,0.29,0.194,0.482,0.281c0.192,0.086,0.423,0.178,0.692,0.273c0.355,0.135,0.672,0.267,0.951,0.396
			c0.278,0.13,0.517,0.281,0.713,0.454c0.197,0.173,0.349,0.382,0.454,0.627c0.106,0.245,0.159,0.546,0.159,0.901
			c0,0.692-0.258,1.216-0.771,1.571s-1.247,0.533-2.198,0.533c-0.663,0-1.182-0.056-1.557-0.166s-0.63-0.194-0.765-0.252
			l0.245-1.153c0.154,0.058,0.399,0.145,0.735,0.26C61.283,105.494,61.729,105.551,62.287,105.551z"/>
		<path class="st2" d="M70.17,106.69c-0.605,0-1.137-0.096-1.593-0.288c-0.457-0.192-0.841-0.461-1.153-0.808
			c-0.312-0.346-0.546-0.757-0.699-1.232c-0.154-0.476-0.23-1.002-0.23-1.578c0-0.577,0.084-1.105,0.252-1.586
			s0.406-0.896,0.714-1.247c0.308-0.351,0.685-0.624,1.132-0.821c0.446-0.197,0.943-0.296,1.491-0.296
			c0.337,0,0.673,0.029,1.01,0.087c0.336,0.058,0.658,0.149,0.966,0.273l-0.303,1.139c-0.202-0.096-0.436-0.173-0.699-0.23
			c-0.265-0.058-0.546-0.086-0.844-0.086c-0.749,0-1.324,0.235-1.723,0.706s-0.598,1.158-0.598,2.062
			c0,0.403,0.045,0.773,0.137,1.109c0.091,0.337,0.235,0.625,0.433,0.865c0.196,0.24,0.449,0.426,0.757,0.555
			c0.308,0.13,0.682,0.195,1.124,0.195c0.355,0,0.678-0.034,0.966-0.102c0.288-0.066,0.514-0.139,0.678-0.216l0.188,1.124
			c-0.077,0.049-0.188,0.094-0.332,0.138c-0.144,0.043-0.308,0.081-0.49,0.115c-0.183,0.033-0.377,0.062-0.583,0.086
			C70.562,106.678,70.362,106.69,70.17,106.69z"/>
		<path class="st2" d="M74.206,97.666c-0.24,0-0.444-0.08-0.612-0.238c-0.169-0.158-0.253-0.372-0.253-0.642
			c0-0.269,0.084-0.482,0.253-0.642c0.168-0.158,0.372-0.237,0.612-0.237s0.444,0.079,0.612,0.237
			c0.168,0.159,0.253,0.373,0.253,0.642c0,0.27-0.085,0.483-0.253,0.642S74.446,97.666,74.206,97.666z M74.884,106.517h-1.341
			v-7.496h1.341V106.517z"/>
		<path class="st2" d="M76.659,102.784c0-0.663,0.096-1.242,0.288-1.737s0.447-0.905,0.764-1.232
			c0.317-0.326,0.683-0.571,1.096-0.735c0.413-0.163,0.836-0.245,1.269-0.245c1.01,0,1.783,0.315,2.321,0.944
			c0.538,0.63,0.807,1.588,0.807,2.876c0,0.058,0,0.132,0,0.224c0,0.091-0.005,0.175-0.014,0.252h-5.132
			c0.058,0.778,0.283,1.369,0.677,1.773c0.395,0.403,1.01,0.605,1.846,0.605c0.471,0,0.867-0.041,1.189-0.123
			c0.321-0.081,0.564-0.16,0.728-0.237l0.188,1.124c-0.163,0.087-0.449,0.178-0.857,0.274c-0.409,0.096-0.872,0.144-1.392,0.144
			c-0.653,0-1.218-0.099-1.693-0.295c-0.476-0.197-0.867-0.469-1.175-0.814c-0.308-0.347-0.536-0.757-0.685-1.233
			C76.733,103.872,76.659,103.351,76.659,102.784z M81.806,102.048c0.009-0.605-0.143-1.103-0.454-1.492
			c-0.312-0.389-0.743-0.584-1.291-0.584c-0.308,0-0.579,0.061-0.814,0.181s-0.435,0.276-0.598,0.469
			c-0.164,0.192-0.291,0.413-0.382,0.663c-0.092,0.25-0.151,0.504-0.181,0.764H81.806z"/>
		<path class="st2" d="M85.011,99.238c0.308-0.077,0.716-0.159,1.226-0.245c0.509-0.087,1.095-0.13,1.758-0.13
			c0.597,0,1.091,0.084,1.485,0.252c0.394,0.168,0.708,0.403,0.944,0.706c0.235,0.303,0.401,0.666,0.497,1.089
			s0.145,0.889,0.145,1.398v4.209h-1.341v-3.921c0-0.461-0.031-0.855-0.094-1.182c-0.062-0.327-0.166-0.592-0.31-0.793
			c-0.145-0.202-0.337-0.349-0.577-0.44c-0.24-0.091-0.538-0.137-0.894-0.137c-0.145,0-0.293,0.005-0.447,0.015
			c-0.153,0.01-0.3,0.021-0.439,0.036s-0.265,0.031-0.375,0.051c-0.11,0.019-0.189,0.033-0.237,0.043v6.328h-1.341V99.238z"/>
		<path class="st2" d="M96.46,106.69c-0.605,0-1.137-0.096-1.593-0.288c-0.457-0.192-0.841-0.461-1.153-0.808
			c-0.312-0.346-0.546-0.757-0.699-1.232c-0.154-0.476-0.23-1.002-0.23-1.578c0-0.577,0.084-1.105,0.252-1.586
			s0.406-0.896,0.714-1.247c0.308-0.351,0.685-0.624,1.132-0.821c0.446-0.197,0.943-0.296,1.491-0.296
			c0.337,0,0.673,0.029,1.01,0.087c0.336,0.058,0.658,0.149,0.966,0.273l-0.303,1.139c-0.202-0.096-0.436-0.173-0.699-0.23
			c-0.265-0.058-0.546-0.086-0.844-0.086c-0.749,0-1.324,0.235-1.723,0.706s-0.598,1.158-0.598,2.062
			c0,0.403,0.045,0.773,0.137,1.109c0.091,0.337,0.235,0.625,0.433,0.865c0.196,0.24,0.449,0.426,0.757,0.555
			c0.308,0.13,0.682,0.195,1.124,0.195c0.355,0,0.678-0.034,0.966-0.102c0.288-0.066,0.514-0.139,0.678-0.216l0.188,1.124
			c-0.077,0.049-0.188,0.094-0.332,0.138c-0.144,0.043-0.308,0.081-0.49,0.115c-0.183,0.033-0.377,0.062-0.583,0.086
			C96.852,106.678,96.652,106.69,96.46,106.69z"/>
		<path class="st2" d="M99.303,102.784c0-0.663,0.096-1.242,0.288-1.737s0.447-0.905,0.764-1.232
			c0.317-0.326,0.683-0.571,1.096-0.735c0.413-0.163,0.836-0.245,1.269-0.245c1.01,0,1.783,0.315,2.321,0.944
			c0.538,0.63,0.807,1.588,0.807,2.876c0,0.058,0,0.132,0,0.224c0,0.091-0.005,0.175-0.014,0.252h-5.132
			c0.058,0.778,0.283,1.369,0.677,1.773c0.395,0.403,1.01,0.605,1.846,0.605c0.471,0,0.867-0.041,1.189-0.123
			c0.321-0.081,0.564-0.16,0.728-0.237l0.188,1.124c-0.163,0.087-0.449,0.178-0.857,0.274c-0.409,0.096-0.872,0.144-1.392,0.144
			c-0.653,0-1.218-0.099-1.693-0.295c-0.476-0.197-0.867-0.469-1.175-0.814c-0.308-0.347-0.536-0.757-0.685-1.233
			C99.377,103.872,99.303,103.351,99.303,102.784z M104.449,102.048c0.009-0.605-0.143-1.103-0.454-1.492
			c-0.312-0.389-0.743-0.584-1.291-0.584c-0.308,0-0.579,0.061-0.814,0.181s-0.435,0.276-0.598,0.469
			c-0.164,0.192-0.291,0.413-0.382,0.663c-0.092,0.25-0.151,0.504-0.181,0.764H104.449z"/>
		<path class="st2" d="M113.386,98.833c0.538,0,0.992,0.07,1.362,0.209c0.369,0.14,0.668,0.337,0.894,0.592
			c0.226,0.254,0.387,0.557,0.482,0.907c0.097,0.352,0.145,0.738,0.145,1.161v4.685c-0.115,0.02-0.276,0.046-0.482,0.079
			c-0.207,0.034-0.44,0.065-0.699,0.094c-0.26,0.029-0.541,0.056-0.844,0.079c-0.303,0.024-0.604,0.036-0.9,0.036
			c-0.424,0-0.812-0.043-1.168-0.129c-0.355-0.087-0.663-0.224-0.923-0.411s-0.461-0.435-0.605-0.742
			c-0.144-0.308-0.216-0.678-0.216-1.11c0-0.413,0.084-0.769,0.252-1.066s0.396-0.538,0.685-0.721s0.625-0.317,1.01-0.404
			c0.384-0.086,0.787-0.13,1.21-0.13c0.135,0,0.274,0.008,0.419,0.022c0.144,0.014,0.28,0.033,0.41,0.058
			c0.13,0.023,0.243,0.045,0.339,0.064s0.163,0.034,0.202,0.043v-0.374c0-0.222-0.024-0.44-0.072-0.656
			c-0.048-0.217-0.135-0.408-0.26-0.577c-0.125-0.168-0.295-0.303-0.512-0.403c-0.216-0.101-0.497-0.151-0.843-0.151
			c-0.442,0-0.829,0.031-1.161,0.094c-0.331,0.062-0.579,0.128-0.742,0.194l-0.158-1.109c0.173-0.077,0.461-0.151,0.865-0.224
			C112.478,98.87,112.915,98.833,113.386,98.833z M113.501,105.551c0.317,0,0.598-0.007,0.843-0.021s0.449-0.041,0.613-0.079v-2.234
			c-0.097-0.048-0.253-0.089-0.469-0.123c-0.216-0.033-0.479-0.05-0.785-0.05c-0.202,0-0.416,0.014-0.642,0.043
			c-0.227,0.028-0.433,0.089-0.62,0.18c-0.188,0.092-0.344,0.217-0.469,0.375c-0.125,0.159-0.188,0.368-0.188,0.627
			c0,0.48,0.154,0.814,0.462,1.002C112.554,105.457,112.973,105.551,113.501,105.551z"/>
		<path class="st2" d="M118.394,99.238c0.308-0.077,0.716-0.159,1.226-0.245c0.509-0.087,1.095-0.13,1.758-0.13
			c0.597,0,1.091,0.084,1.485,0.252c0.394,0.168,0.708,0.403,0.944,0.706c0.235,0.303,0.401,0.666,0.497,1.089
			s0.145,0.889,0.145,1.398v4.209h-1.341v-3.921c0-0.461-0.031-0.855-0.094-1.182c-0.062-0.327-0.166-0.592-0.31-0.793
			c-0.145-0.202-0.337-0.349-0.577-0.44c-0.24-0.091-0.538-0.137-0.894-0.137c-0.145,0-0.293,0.005-0.447,0.015
			c-0.153,0.01-0.3,0.021-0.439,0.036s-0.265,0.031-0.375,0.051c-0.11,0.019-0.189,0.033-0.237,0.043v6.328h-1.341V99.238z"/>
		<path class="st2" d="M131.428,95.561l1.34-0.23v10.971c-0.308,0.086-0.701,0.173-1.182,0.259c-0.48,0.087-1.033,0.13-1.657,0.13
			c-0.577,0-1.096-0.092-1.558-0.273c-0.461-0.183-0.855-0.442-1.182-0.778c-0.327-0.337-0.579-0.747-0.757-1.233
			c-0.178-0.484-0.267-1.03-0.267-1.636c0-0.576,0.074-1.104,0.224-1.586c0.148-0.48,0.367-0.894,0.655-1.239
			s0.642-0.615,1.06-0.808c0.418-0.191,0.896-0.288,1.435-0.288c0.433,0,0.814,0.058,1.146,0.173
			c0.332,0.115,0.579,0.226,0.743,0.332V95.561z M131.428,100.607c-0.164-0.135-0.399-0.265-0.707-0.39
			c-0.308-0.124-0.644-0.188-1.009-0.188c-0.385,0-0.714,0.07-0.987,0.209c-0.274,0.14-0.497,0.332-0.67,0.577
			c-0.174,0.245-0.299,0.536-0.375,0.872c-0.077,0.337-0.115,0.697-0.115,1.081c0,0.875,0.216,1.55,0.648,2.025
			s1.009,0.714,1.729,0.714c0.365,0,0.671-0.017,0.916-0.051c0.245-0.033,0.435-0.069,0.569-0.108V100.607z"/>
		<path class="st2" d="M138.26,106.517V95.561l1.341-0.23v3.835c0.249-0.096,0.517-0.171,0.8-0.224s0.564-0.079,0.843-0.079
			c0.597,0,1.091,0.084,1.485,0.252c0.394,0.168,0.708,0.403,0.944,0.706c0.235,0.303,0.401,0.666,0.497,1.089
			s0.145,0.889,0.145,1.398v4.209h-1.341v-3.921c0-0.461-0.031-0.855-0.094-1.182c-0.062-0.327-0.166-0.592-0.31-0.793
			c-0.145-0.202-0.337-0.349-0.577-0.44c-0.24-0.091-0.538-0.137-0.894-0.137c-0.145,0-0.293,0.01-0.447,0.029
			c-0.153,0.02-0.3,0.041-0.439,0.064c-0.14,0.024-0.265,0.051-0.375,0.079c-0.11,0.029-0.189,0.054-0.237,0.072v6.228H138.26z"/>
		<path class="st2" d="M146.011,102.784c0-0.663,0.096-1.242,0.288-1.737s0.447-0.905,0.764-1.232
			c0.317-0.326,0.683-0.571,1.096-0.735c0.413-0.163,0.836-0.245,1.269-0.245c1.01,0,1.783,0.315,2.321,0.944
			c0.538,0.63,0.807,1.588,0.807,2.876c0,0.058,0,0.132,0,0.224c0,0.091-0.005,0.175-0.014,0.252h-5.132
			c0.058,0.778,0.283,1.369,0.677,1.773c0.395,0.403,1.01,0.605,1.846,0.605c0.471,0,0.867-0.041,1.189-0.123
			c0.321-0.081,0.564-0.16,0.728-0.237l0.188,1.124c-0.163,0.087-0.449,0.178-0.857,0.274c-0.409,0.096-0.872,0.144-1.392,0.144
			c-0.653,0-1.218-0.099-1.693-0.295c-0.476-0.197-0.867-0.469-1.175-0.814c-0.308-0.347-0.536-0.757-0.685-1.233
			C146.085,103.872,146.011,103.351,146.011,102.784z M151.157,102.048c0.009-0.605-0.143-1.103-0.454-1.492
			c-0.312-0.389-0.743-0.584-1.291-0.584c-0.308,0-0.579,0.061-0.814,0.181s-0.435,0.276-0.598,0.469
			c-0.164,0.192-0.291,0.413-0.382,0.663c-0.092,0.25-0.151,0.504-0.181,0.764H151.157z"/>
		<path class="st2" d="M156.77,98.833c0.538,0,0.992,0.07,1.362,0.209c0.369,0.14,0.668,0.337,0.894,0.592
			c0.226,0.254,0.387,0.557,0.482,0.907c0.097,0.352,0.145,0.738,0.145,1.161v4.685c-0.115,0.02-0.276,0.046-0.482,0.079
			c-0.207,0.034-0.44,0.065-0.699,0.094c-0.26,0.029-0.541,0.056-0.844,0.079c-0.303,0.024-0.604,0.036-0.9,0.036
			c-0.424,0-0.812-0.043-1.168-0.129c-0.355-0.087-0.663-0.224-0.923-0.411s-0.461-0.435-0.605-0.742
			c-0.144-0.308-0.216-0.678-0.216-1.11c0-0.413,0.084-0.769,0.252-1.066s0.396-0.538,0.685-0.721s0.625-0.317,1.01-0.404
			c0.384-0.086,0.787-0.13,1.21-0.13c0.135,0,0.274,0.008,0.419,0.022c0.144,0.014,0.28,0.033,0.41,0.058
			c0.13,0.023,0.243,0.045,0.339,0.064s0.163,0.034,0.202,0.043v-0.374c0-0.222-0.024-0.44-0.072-0.656
			c-0.048-0.217-0.135-0.408-0.26-0.577c-0.125-0.168-0.295-0.303-0.512-0.403c-0.216-0.101-0.497-0.151-0.843-0.151
			c-0.442,0-0.829,0.031-1.161,0.094c-0.331,0.062-0.579,0.128-0.742,0.194l-0.158-1.109c0.173-0.077,0.461-0.151,0.865-0.224
			C155.861,98.87,156.299,98.833,156.77,98.833z M156.885,105.551c0.317,0,0.598-0.007,0.843-0.021s0.449-0.041,0.613-0.079v-2.234
			c-0.097-0.048-0.253-0.089-0.469-0.123c-0.216-0.033-0.479-0.05-0.785-0.05c-0.202,0-0.416,0.014-0.642,0.043
			c-0.227,0.028-0.433,0.089-0.62,0.18c-0.188,0.092-0.344,0.217-0.469,0.375c-0.125,0.159-0.188,0.368-0.188,0.627
			c0,0.48,0.154,0.814,0.462,1.002C155.938,105.457,156.356,105.551,156.885,105.551z"/>
		<path class="st2" d="M164.016,106.662c-0.827-0.02-1.413-0.197-1.759-0.534c-0.346-0.336-0.52-0.859-0.52-1.571v-8.995l1.341-0.23
			v9.01c0,0.222,0.02,0.403,0.058,0.548s0.102,0.26,0.188,0.346c0.087,0.087,0.202,0.151,0.346,0.195
			c0.145,0.043,0.322,0.079,0.534,0.107L164.016,106.662z"/>
		<path class="st2" d="M166.796,99.021h2.84v1.125h-2.84v3.459c0,0.375,0.029,0.685,0.087,0.93s0.144,0.438,0.259,0.577
			s0.26,0.237,0.433,0.295s0.375,0.087,0.605,0.087c0.404,0,0.729-0.046,0.974-0.137c0.245-0.092,0.415-0.156,0.512-0.195
			l0.259,1.11c-0.135,0.067-0.37,0.151-0.706,0.252c-0.337,0.102-0.721,0.151-1.153,0.151c-0.51,0-0.93-0.064-1.261-0.194
			c-0.332-0.13-0.599-0.324-0.801-0.584c-0.201-0.259-0.344-0.578-0.425-0.958c-0.082-0.38-0.123-0.819-0.123-1.319v-6.688
			l1.341-0.23V99.021z"/>
		<path class="st2" d="M171.276,106.517V95.561l1.341-0.23v3.835c0.249-0.096,0.517-0.171,0.8-0.224s0.564-0.079,0.843-0.079
			c0.597,0,1.091,0.084,1.485,0.252c0.394,0.168,0.708,0.403,0.944,0.706c0.235,0.303,0.401,0.666,0.497,1.089
			s0.145,0.889,0.145,1.398v4.209h-1.341v-3.921c0-0.461-0.031-0.855-0.094-1.182c-0.062-0.327-0.166-0.592-0.31-0.793
			c-0.145-0.202-0.337-0.349-0.577-0.44c-0.24-0.091-0.538-0.137-0.894-0.137c-0.145,0-0.293,0.01-0.447,0.029
			c-0.153,0.02-0.3,0.041-0.439,0.064c-0.14,0.024-0.265,0.051-0.375,0.079c-0.11,0.029-0.189,0.054-0.237,0.072v6.228H171.276z"/>
		<path class="st2" d="M189.296,102.784c0,0.567-0.075,1.091-0.224,1.571c-0.149,0.48-0.368,0.894-0.656,1.239
			c-0.288,0.347-0.642,0.615-1.06,0.808s-0.896,0.288-1.435,0.288c-0.432,0-0.814-0.058-1.146-0.173
			c-0.332-0.115-0.579-0.226-0.742-0.332v2.999h-1.341v-9.933c0.317-0.076,0.714-0.16,1.189-0.252
			c0.476-0.091,1.025-0.137,1.65-0.137c0.576,0,1.096,0.091,1.557,0.273s0.855,0.442,1.183,0.778
			c0.326,0.337,0.578,0.748,0.756,1.232C189.206,101.632,189.296,102.178,189.296,102.784z M187.897,102.784
			c0-0.875-0.217-1.547-0.649-2.019c-0.432-0.471-1.009-0.706-1.729-0.706c-0.403,0-0.719,0.015-0.944,0.043
			c-0.226,0.029-0.406,0.062-0.54,0.102v4.728c0.163,0.135,0.398,0.265,0.706,0.39s0.644,0.188,1.009,0.188
			c0.385,0,0.714-0.07,0.987-0.209c0.274-0.14,0.498-0.332,0.671-0.577s0.298-0.533,0.375-0.864
			C187.858,103.526,187.897,103.168,187.897,102.784z"/>
		<path class="st2" d="M193.855,98.863c0.115,0,0.247,0.007,0.396,0.021c0.148,0.015,0.296,0.034,0.439,0.058
			c0.145,0.024,0.276,0.048,0.396,0.072c0.12,0.023,0.209,0.046,0.267,0.064l-0.23,1.168c-0.105-0.038-0.281-0.084-0.526-0.137
			s-0.56-0.08-0.944-0.08c-0.25,0-0.497,0.027-0.742,0.08s-0.406,0.089-0.482,0.107v6.3h-1.341v-7.179
			c0.317-0.115,0.711-0.224,1.182-0.324C192.74,98.913,193.27,98.863,193.855,98.863z"/>
		<path class="st2" d="M203.077,102.769c0,0.596-0.086,1.134-0.259,1.614c-0.174,0.481-0.416,0.895-0.729,1.24
			s-0.685,0.612-1.117,0.8s-0.903,0.281-1.412,0.281c-0.51,0-0.98-0.094-1.413-0.281s-0.805-0.454-1.117-0.8
			s-0.555-0.759-0.728-1.24c-0.174-0.48-0.26-1.019-0.26-1.614c0-0.586,0.086-1.122,0.26-1.607c0.173-0.485,0.415-0.9,0.728-1.247
			c0.312-0.346,0.685-0.612,1.117-0.8s0.903-0.281,1.413-0.281c0.509,0,0.979,0.094,1.412,0.281s0.805,0.454,1.117,0.8
			c0.312,0.347,0.555,0.762,0.729,1.247C202.991,101.647,203.077,102.183,203.077,102.769z M201.679,102.769
			c0-0.846-0.189-1.516-0.569-2.011c-0.379-0.495-0.896-0.742-1.549-0.742c-0.654,0-1.171,0.247-1.55,0.742
			c-0.38,0.495-0.569,1.165-0.569,2.011s0.189,1.517,0.569,2.011c0.379,0.495,0.896,0.742,1.55,0.742
			c0.653,0,1.17-0.247,1.549-0.742C201.489,104.286,201.679,103.615,201.679,102.769z"/>
		<path class="st2" d="M207.796,95.331c0.395,0,0.733,0.029,1.017,0.087s0.483,0.11,0.599,0.158l-0.245,1.153
			c-0.115-0.058-0.279-0.112-0.49-0.166c-0.212-0.053-0.471-0.079-0.778-0.079c-0.625,0-1.062,0.171-1.312,0.512
			c-0.25,0.342-0.374,0.8-0.374,1.377v0.648h2.883v1.125h-2.883v6.371h-1.341v-8.174c0-0.961,0.235-1.703,0.706-2.227
			S206.787,95.331,207.796,95.331z"/>
		<path class="st2" d="M209.884,102.784c0-0.663,0.096-1.242,0.288-1.737s0.447-0.905,0.764-1.232
			c0.317-0.326,0.683-0.571,1.096-0.735c0.413-0.163,0.836-0.245,1.269-0.245c1.01,0,1.783,0.315,2.321,0.944
			c0.538,0.63,0.807,1.588,0.807,2.876c0,0.058,0,0.132,0,0.224c0,0.091-0.005,0.175-0.014,0.252h-5.132
			c0.058,0.778,0.283,1.369,0.677,1.773c0.395,0.403,1.01,0.605,1.846,0.605c0.471,0,0.867-0.041,1.189-0.123
			c0.321-0.081,0.564-0.16,0.728-0.237l0.188,1.124c-0.163,0.087-0.449,0.178-0.857,0.274c-0.409,0.096-0.872,0.144-1.392,0.144
			c-0.653,0-1.218-0.099-1.693-0.295c-0.476-0.197-0.867-0.469-1.175-0.814c-0.308-0.347-0.536-0.757-0.685-1.233
			C209.958,103.872,209.884,103.351,209.884,102.784z M215.03,102.048c0.009-0.605-0.143-1.103-0.454-1.492
			c-0.312-0.389-0.743-0.584-1.291-0.584c-0.308,0-0.579,0.061-0.814,0.181s-0.435,0.276-0.598,0.469
			c-0.164,0.192-0.291,0.413-0.382,0.663c-0.092,0.25-0.151,0.504-0.181,0.764H215.03z"/>
		<path class="st2" d="M219.979,105.551c0.548,0,0.954-0.072,1.218-0.216c0.265-0.145,0.396-0.375,0.396-0.692
			c0-0.326-0.13-0.586-0.389-0.778c-0.26-0.192-0.688-0.408-1.283-0.648c-0.288-0.115-0.564-0.233-0.829-0.354
			s-0.492-0.262-0.685-0.425c-0.192-0.164-0.346-0.36-0.461-0.592c-0.115-0.23-0.173-0.514-0.173-0.851
			c0-0.663,0.244-1.188,0.734-1.578c0.49-0.389,1.158-0.584,2.004-0.584c0.212,0,0.423,0.013,0.635,0.036
			c0.211,0.024,0.408,0.053,0.591,0.087c0.183,0.033,0.344,0.069,0.482,0.107c0.14,0.039,0.248,0.072,0.325,0.102l-0.245,1.153
			c-0.145-0.077-0.37-0.156-0.678-0.238c-0.308-0.081-0.678-0.122-1.11-0.122c-0.375,0-0.701,0.074-0.98,0.223
			c-0.278,0.149-0.418,0.383-0.418,0.699c0,0.164,0.031,0.308,0.094,0.433s0.159,0.238,0.289,0.339
			c0.129,0.101,0.29,0.194,0.482,0.281c0.192,0.086,0.423,0.178,0.692,0.273c0.355,0.135,0.672,0.267,0.951,0.396
			c0.278,0.13,0.517,0.281,0.713,0.454c0.197,0.173,0.349,0.382,0.454,0.627c0.106,0.245,0.159,0.546,0.159,0.901
			c0,0.692-0.258,1.216-0.771,1.571s-1.247,0.533-2.198,0.533c-0.663,0-1.182-0.056-1.557-0.166s-0.63-0.194-0.765-0.252
			l0.245-1.153c0.154,0.058,0.399,0.145,0.735,0.26C218.975,105.494,219.421,105.551,219.979,105.551z"/>
		<path class="st2" d="M226.369,105.551c0.548,0,0.954-0.072,1.218-0.216c0.265-0.145,0.396-0.375,0.396-0.692
			c0-0.326-0.13-0.586-0.389-0.778c-0.26-0.192-0.688-0.408-1.283-0.648c-0.288-0.115-0.564-0.233-0.829-0.354
			s-0.492-0.262-0.685-0.425c-0.192-0.164-0.346-0.36-0.461-0.592c-0.115-0.23-0.173-0.514-0.173-0.851
			c0-0.663,0.244-1.188,0.734-1.578c0.49-0.389,1.158-0.584,2.004-0.584c0.212,0,0.423,0.013,0.635,0.036
			c0.211,0.024,0.408,0.053,0.591,0.087c0.183,0.033,0.344,0.069,0.482,0.107c0.14,0.039,0.248,0.072,0.325,0.102l-0.245,1.153
			c-0.145-0.077-0.37-0.156-0.678-0.238c-0.308-0.081-0.678-0.122-1.11-0.122c-0.375,0-0.701,0.074-0.98,0.223
			c-0.278,0.149-0.418,0.383-0.418,0.699c0,0.164,0.031,0.308,0.094,0.433s0.159,0.238,0.289,0.339
			c0.129,0.101,0.29,0.194,0.482,0.281c0.192,0.086,0.423,0.178,0.692,0.273c0.355,0.135,0.672,0.267,0.951,0.396
			c0.278,0.13,0.517,0.281,0.713,0.454c0.197,0.173,0.349,0.382,0.454,0.627c0.106,0.245,0.159,0.546,0.159,0.901
			c0,0.692-0.258,1.216-0.771,1.571s-1.247,0.533-2.198,0.533c-0.663,0-1.182-0.056-1.557-0.166s-0.63-0.194-0.765-0.252
			l0.245-1.153c0.154,0.058,0.399,0.145,0.735,0.26C225.365,105.494,225.812,105.551,226.369,105.551z"/>
		<path class="st2" d="M231.604,97.666c-0.24,0-0.444-0.08-0.612-0.238c-0.169-0.158-0.253-0.372-0.253-0.642
			c0-0.269,0.084-0.482,0.253-0.642c0.168-0.158,0.372-0.237,0.612-0.237s0.444,0.079,0.612,0.237
			c0.168,0.159,0.253,0.373,0.253,0.642c0,0.27-0.085,0.483-0.253,0.642S231.845,97.666,231.604,97.666z M232.282,106.517h-1.341
			v-7.496h1.341V106.517z"/>
		<path class="st2" d="M241.092,102.769c0,0.596-0.086,1.134-0.259,1.614c-0.174,0.481-0.416,0.895-0.729,1.24
			s-0.685,0.612-1.117,0.8s-0.903,0.281-1.412,0.281c-0.51,0-0.98-0.094-1.413-0.281s-0.805-0.454-1.117-0.8
			s-0.555-0.759-0.728-1.24c-0.174-0.48-0.26-1.019-0.26-1.614c0-0.586,0.086-1.122,0.26-1.607c0.173-0.485,0.415-0.9,0.728-1.247
			c0.312-0.346,0.685-0.612,1.117-0.8s0.903-0.281,1.413-0.281c0.509,0,0.979,0.094,1.412,0.281s0.805,0.454,1.117,0.8
			c0.312,0.347,0.555,0.762,0.729,1.247C241.006,101.647,241.092,102.183,241.092,102.769z M239.693,102.769
			c0-0.846-0.189-1.516-0.569-2.011c-0.379-0.495-0.896-0.742-1.549-0.742c-0.654,0-1.171,0.247-1.55,0.742
			c-0.38,0.495-0.569,1.165-0.569,2.011s0.189,1.517,0.569,2.011c0.379,0.495,0.896,0.742,1.55,0.742
			c0.653,0,1.17-0.247,1.549-0.742C239.504,104.286,239.693,103.615,239.693,102.769z"/>
		<path class="st2" d="M242.886,99.238c0.308-0.077,0.716-0.159,1.226-0.245c0.509-0.087,1.095-0.13,1.758-0.13
			c0.597,0,1.091,0.084,1.485,0.252c0.394,0.168,0.708,0.403,0.944,0.706c0.235,0.303,0.401,0.666,0.497,1.089
			s0.145,0.889,0.145,1.398v4.209H247.6v-3.921c0-0.461-0.031-0.855-0.094-1.182c-0.062-0.327-0.166-0.592-0.31-0.793
			c-0.145-0.202-0.337-0.349-0.577-0.44c-0.24-0.091-0.538-0.137-0.894-0.137c-0.145,0-0.293,0.005-0.447,0.015
			c-0.153,0.01-0.3,0.021-0.439,0.036s-0.265,0.031-0.375,0.051c-0.11,0.019-0.189,0.033-0.237,0.043v6.328h-1.341V99.238z"/>
		<path class="st2" d="M252.79,105.551c0.548,0,0.954-0.072,1.218-0.216c0.265-0.145,0.396-0.375,0.396-0.692
			c0-0.326-0.13-0.586-0.389-0.778c-0.26-0.192-0.688-0.408-1.283-0.648c-0.288-0.115-0.564-0.233-0.829-0.354
			s-0.492-0.262-0.685-0.425c-0.192-0.164-0.346-0.36-0.461-0.592c-0.115-0.23-0.173-0.514-0.173-0.851
			c0-0.663,0.244-1.188,0.734-1.578c0.49-0.389,1.158-0.584,2.004-0.584c0.212,0,0.423,0.013,0.635,0.036
			c0.211,0.024,0.408,0.053,0.591,0.087c0.183,0.033,0.344,0.069,0.482,0.107c0.14,0.039,0.248,0.072,0.325,0.102l-0.245,1.153
			c-0.145-0.077-0.37-0.156-0.678-0.238c-0.308-0.081-0.678-0.122-1.11-0.122c-0.375,0-0.701,0.074-0.98,0.223
			c-0.278,0.149-0.418,0.383-0.418,0.699c0,0.164,0.031,0.308,0.094,0.433s0.159,0.238,0.289,0.339
			c0.129,0.101,0.29,0.194,0.482,0.281c0.192,0.086,0.423,0.178,0.692,0.273c0.355,0.135,0.672,0.267,0.951,0.396
			c0.278,0.13,0.517,0.281,0.713,0.454c0.197,0.173,0.349,0.382,0.454,0.627c0.106,0.245,0.159,0.546,0.159,0.901
			c0,0.692-0.258,1.216-0.771,1.571s-1.247,0.533-2.198,0.533c-0.663,0-1.182-0.056-1.557-0.166s-0.63-0.194-0.765-0.252
			l0.245-1.153c0.154,0.058,0.399,0.145,0.735,0.26C251.786,105.494,252.232,105.551,252.79,105.551z"/>
	</g>
	<path class="st1" d="M72.563,22.996c-12.088,0-23.949,7.863-23.949,23.768c0,16.086,12.155,24.13,24.333,24.13
		c12.155,0,24.423-8.043,24.423-24.13C97.37,30.564,85.396,22.996,72.563,22.996z M73.128,61.698
		c-7.094,0.09-14.166-4.88-14.166-14.934c0-9.783,6.688-14.369,13.601-14.573c7.094-0.181,14.369,4.496,14.369,14.573
		C86.932,56.615,80.019,61.608,73.128,61.698z"/>
	<path class="st1" d="M142.964,56.818V23.854h-10.438v26.434c0,7.388-5.084,12.178-11.681,12.178
		c-6.145,0-10.054-4.496-9.964-11.884V23.854H100.33v26.728c0,11.319,4.519,20.221,17.261,20.221c6.507,0,12.833-2.011,15.996-8.247
		c0,8.857,7.704,7.727,13.895,7.659v-6.801C143.145,63.347,142.964,62.218,142.964,56.818z"/>
	<path class="st1" d="M176.065,22.996c-5.648,0.09-11.794,2.485-13.601,7.659c0-7.75-6.959-7.117-14.143-7.094v7.117
		c4.067,0.136,4.451,1.966,4.451,5.919v30.185c0,1.797,1.457,3.253,3.253,3.253h7.094V43.397c0-7.478,5.558-10.913,11.794-10.913
		c3.299,0,6.326,0.926,9.083,2.711V24.667C181.578,23.515,178.821,22.928,176.065,22.996z"/>
	<path class="st1" d="M198.581,70.035h-7.189c-1.797,0-3.253-1.457-3.253-3.253V23.855h10.443V70.035z"/>
	<path class="st1" d="M244.263,55.507c0,9.873-9.58,14.46-19.634,14.46c-5.761,0-14.156-1.175-20.618-3.954v-8.608
		c10.687,4.315,17.839,4.722,20.618,4.722c4.79,0,9.76-2.305,9.467-6.439c-0.09-3.818-3.818-4.677-11.003-5.558
		c-2.417-0.316-4.79-0.633-7.004-1.13c-0.068-0.023-0.113-0.023-0.181-0.045c-6.801-1.333-12.562-3.931-12.788-11.59
		c0-9.873,9.58-14.46,19.634-14.46c5.761,0,14.156,1.175,20.618,3.954v8.608c-10.687-4.315-17.839-4.722-20.618-4.722
		c-4.79,0-9.76,2.305-9.467,6.439c0.09,3.818,3.818,4.677,11.003,5.558c1.92,0.249,3.864,0.52,5.694,0.881
		c0.271,0.045,0.542,0.113,0.791,0.158C237.892,45.069,244.037,47.6,244.263,55.507z"/>
	<path class="st1" d="M284.253,70.035c-1.797,0-3.253-1.457-3.253-3.253V42.921c0.095-7.663-4.216-11.495-10.732-11.592
		c-6.802,0-11.879,4.6-11.879,12.168v26.538h-7.189c-1.797,0-3.253-1.457-3.253-3.253V0h2.309c4.492,0,8.134,3.642,8.134,8.134V29.7
		c3.927-5.269,8.717-6.705,14.849-6.705c12.742,0,18.3,8.047,18.3,19.926v27.114H284.253z"/>
	<path class="st1" d="M193.41,3.451c3.162,0,6.226,2.107,6.226,6.132c0,4.119-3.065,6.132-6.132,6.226
		c-3.162,0.095-6.418-2.012-6.418-6.226C187.086,5.461,190.248,3.451,193.41,3.451z"/>
	<path class="st3" d="M2.071,24.534v-1.47C2.071,23.063,2.024,23.65,2.071,24.534z"/>
	<linearGradient id="SVGID_2_" gradientUnits="userSpaceOnUse" x1="7.2847" y1="48.4811" x2="8.5556" y2="32.6657">
		<stop  offset="0" style="stop-color:#AED36E"/>
		<stop  offset="1" style="stop-color:#7E9250"/>
	</linearGradient>
	<path class="st4" d="M2.071,24.534v9.962c0.068,0.768,0.068,1.695,0.068,2.779v29.507c0,1.797,1.457,3.253,3.253,3.253h7.298
		V43.782v-9.234C3.608,34.548,2.235,27.623,2.071,24.534z"/>
	<path class="st1" d="M2.071,23.122v2.291c0.255,4.813,2.394,15.602,16.545,15.602v-8.216C18.616,22.309,10.062,22.699,2.071,23.122
		z"/>
</g>
</svg>