<!-- Generator: Adobe Illustrator 22.0.1, SVG Export Plug-In  -->
<svg version="1.1"
	 xmlns="http://www.w3.org/2000/svg" xmlns:xlink="http://www.w3.org/1999/xlink" xmlns:a="http://ns.adobe.com/AdobeSVGViewerExtensions/3.0/"
	 x="0px" y="0px" width="53.761px" height="46.559px" viewBox="0 0 53.761 46.559"
	 style="enable-background:new 0 0 53.761 46.559;" xml:space="preserve">
<style type="text/css">
	.st0{fill:#FFCE07;stroke:#FFFFFF;stroke-width:0.2851;stroke-miterlimit:10;}
	.st1{fill:#FFFFFF;stroke:#FFFFFF;stroke-width:0.2851;stroke-miterlimit:10;}
</style>
<defs>
</defs>
<g>
	<g>
		<polygon class="st0" points="46.142,34.374 41.465,26.274 41.465,26.274 46.142,34.374 		"/>
		<polygon class="st1" points="41.57,26.092 46.457,34.556 46.247,34.556 46.351,34.737 46.771,34.737 41.675,25.91 41.255,25.91 
			41.36,26.092 		"/>
		<polygon class="st1" points="46.456,34.557 46.246,34.557 46.146,34.377 41.466,26.277 41.356,26.087 41.566,26.087 		"/>
		<polygon class="st0" points="52.886,46.057 46.906,35.707 46.916,35.707 		"/>
		<g>
			<polygon class="st0" points="17.789,16.759 13.065,24.941 13.065,24.941 17.789,16.759 			"/>
			<polygon class="st1" points="12.75,25.123 17.684,16.577 17.894,16.577 17.998,16.395 17.579,16.395 12.436,25.304 
				12.855,25.304 12.96,25.123 			"/>
			<polygon class="st1" points="24.204,16.395 17.998,16.395 17.894,16.577 24.023,16.577 24.023,25.123 12.96,25.123 
				12.855,25.304 24.204,25.304 			"/>
			<polygon class="st1" points="17.896,16.577 17.786,16.757 13.066,24.937 12.956,25.127 12.746,25.127 17.686,16.577 			"/>
			<polygon class="st1" points="24.026,16.577 24.026,25.127 12.956,25.127 13.066,24.937 23.846,24.937 23.846,16.757 
				17.786,16.757 17.896,16.577 			"/>
			<polygon class="st0" points="40.696,24.941 35.972,16.759 35.972,16.759 40.696,24.941 			"/>
			<polygon class="st1" points="36.076,16.577 41.011,25.123 40.801,25.123 40.905,25.304 41.325,25.304 36.233,16.487 
				36.181,16.395 35.762,16.395 35.867,16.577 			"/>
			<polygon class="st1" points="24.811,25.304 40.905,25.304 40.801,25.123 24.992,25.123 24.992,16.577 35.867,16.577 
				35.762,16.395 24.811,16.395 			"/>
			<polygon class="st1" points="41.006,25.127 40.796,25.127 40.696,24.937 35.976,16.757 35.866,16.577 36.076,16.577 			"/>
			<polygon class="st1" points="40.796,25.127 24.996,25.127 24.996,16.577 35.866,16.577 35.976,16.757 25.176,16.757 
				25.176,24.937 40.696,24.937 			"/>
			<polygon class="st0" points="35.203,15.427 26.88,1.012 35.203,15.427 			"/>
			<polygon class="st1" points="18.244,15.608 26.88,0.648 35.517,15.608 35.307,15.608 35.412,15.79 35.832,15.79 27.037,0.558 
				26.88,0.285 18.086,15.518 17.929,15.79 18.348,15.79 18.453,15.608 			"/>
			<polygon class="st1" points="35.307,15.608 18.453,15.608 18.348,15.79 35.412,15.79 			"/>
			<polygon class="st1" points="35.516,15.607 35.306,15.607 35.206,15.427 26.876,1.007 18.556,15.427 18.456,15.607 
				18.246,15.607 26.876,0.647 			"/>
			<polygon class="st1" points="35.306,15.607 18.456,15.607 18.556,15.427 35.206,15.427 			"/>
			<polygon class="st1" points="32.346,34.737 46.351,34.737 46.247,34.556 32.528,34.556 32.528,26.092 41.36,26.092 41.255,25.91 
				32.346,25.91 			"/>
			<polygon class="st1" points="46.246,34.557 32.526,34.557 32.526,26.087 41.356,26.087 41.466,26.277 32.706,26.277 
				32.706,34.377 46.146,34.377 			"/>
			<polygon class="st0" points="12.295,26.274 7.837,33.996 12.295,26.274 			"/>
			<polygon class="st1" points="7.304,34.556 12.191,26.092 12.4,26.092 12.505,25.91 12.086,25.91 6.99,34.737 7.409,34.737 
				7.514,34.556 			"/>
			<polygon class="st1" points="31.741,25.91 12.505,25.91 12.4,26.092 31.559,26.092 31.559,34.556 7.514,34.556 7.409,34.737 
				31.741,34.737 			"/>
			<polygon class="st1" points="12.396,26.087 12.296,26.277 7.836,33.997 7.616,34.377 7.516,34.557 7.306,34.557 12.186,26.087 
							"/>
			<polygon class="st1" points="31.556,26.087 31.556,34.557 7.516,34.557 7.616,34.377 31.376,34.377 31.376,26.277 12.296,26.277 
				12.396,26.087 			"/>
			<polygon class="st0" points="0.876,46.053 6.849,35.707 6.849,35.707 			"/>
			<polygon class="st1" points="47.173,35.435 47.121,35.343 46.702,35.343 46.806,35.525 47.016,35.525 53.199,46.234 
				0.561,46.234 6.744,35.525 6.954,35.525 7.059,35.343 6.64,35.343 0.247,46.416 53.514,46.416 			"/>
			<polygon class="st1" points="46.806,35.525 46.702,35.343 7.059,35.343 6.954,35.525 			"/>
			<polygon class="st1" points="53.196,46.237 0.556,46.237 6.746,35.527 6.956,35.527 6.846,35.707 0.876,46.057 52.886,46.057 
				46.916,35.707 46.906,35.707 46.806,35.527 47.016,35.527 			"/>
		</g>
	</g>
	<polygon class="st1" points="46.906,35.707 6.846,35.707 6.956,35.527 46.806,35.527 	"/>
</g>
</svg>