<!-- Generator: Adobe Illustrator 22.0.1, SVG Export Plug-In  -->
<svg version="1.1"
	 xmlns="http://www.w3.org/2000/svg" xmlns:xlink="http://www.w3.org/1999/xlink" xmlns:a="http://ns.adobe.com/AdobeSVGViewerExtensions/3.0/"
	 x="0px" y="0px" width="24.336px" height="41.948px" viewBox="0 0 24.336 41.948"
	 style="enable-background:new 0 0 24.336 41.948;" xml:space="preserve">
<style type="text/css">
	.st0{fill:#FFFFFF;}
</style>
<defs>
</defs>
<g>
	<path class="st0" d="M9.378,41.948c-4.327,0-7.847-3.52-7.847-7.847c0-4.046,6.898-19.184,7.192-19.827l0.655-1.433l0.655,1.433
		c0.293,0.643,7.191,15.781,7.191,19.827C17.225,38.429,13.705,41.948,9.378,41.948z M9.378,16.327
		c-2.253,5.063-6.406,14.977-6.406,17.774c0,3.533,2.874,6.407,6.406,6.407c3.532,0,6.406-2.874,6.406-6.407
		C15.784,31.304,11.631,21.391,9.378,16.327z"/>
</g>
<g>
	<path class="st0" d="M19.579,22.448c-2.623,0-4.757-2.134-4.757-4.757c0-2.319,3.683-10.443,4.103-11.362l0.655-1.433l0.655,1.433
		c0.42,0.919,4.103,9.042,4.103,11.362C24.336,20.314,22.202,22.448,19.579,22.448z M19.579,8.39
		c-1.519,3.454-3.317,7.979-3.317,9.301c0,1.829,1.488,3.317,3.317,3.317s3.317-1.488,3.317-3.317
		C22.896,16.368,21.098,11.844,19.579,8.39z"/>
</g>
<g>
	<path class="st0" d="M3.295,12.082C1.478,12.082,0,10.604,0,8.787c0-1.502,2.199-6.39,2.64-7.354L3.295,0L3.95,1.433
		c0.441,0.964,2.64,5.852,2.64,7.354C6.589,10.604,5.111,12.082,3.295,12.082z M3.295,3.51C2.41,5.567,1.44,8.056,1.44,8.787
		c0,1.022,0.832,1.854,1.854,1.854s1.854-0.832,1.854-1.854C5.149,8.056,4.18,5.567,3.295,3.51z"/>
</g>
</svg>