<!-- Generator: Adobe Illustrator 22.1.0, SVG Export Plug-In  -->
<svg version="1.1"
	 xmlns="http://www.w3.org/2000/svg" xmlns:xlink="http://www.w3.org/1999/xlink" xmlns:a="http://ns.adobe.com/AdobeSVGViewerExtensions/3.0/"
	 x="0px" y="0px" width="193.979px" height="204.232px" viewBox="0 0 193.979 204.232"
	 style="enable-background:new 0 0 193.979 204.232;" xml:space="preserve">
<style type="text/css">
	.st0{fill:#FFFFFF;}
</style>
<defs>
</defs>
<g>
	<g>
		<path class="st0" d="M65.377,204.232C29.328,204.232,0,174.904,0,138.854s29.328-65.377,65.377-65.377
			s65.377,29.328,65.377,65.377S101.426,204.232,65.377,204.232z M65.377,79.114c-32.941,0-59.74,26.799-59.74,59.74
			s26.799,59.74,59.74,59.74s59.74-26.799,59.74-59.74S98.318,79.114,65.377,79.114z"/>
	</g>
	<g>
		<path class="st0" d="M158.002,84.146c-19.838,0-35.977-16.139-35.977-35.977s16.139-35.977,35.977-35.977
			s35.977,16.139,35.977,35.977S177.84,84.146,158.002,84.146z M158.002,16.701c-17.352,0-31.468,14.117-31.468,31.468
			s14.116,31.468,31.468,31.468S189.47,65.52,189.47,48.169S175.354,16.701,158.002,16.701z"/>
	</g>
	<g>
		<path class="st0" d="M79.947,38.232c-10.541,0-19.115-8.575-19.115-19.116S69.406,0,79.947,0s19.116,8.575,19.116,19.116
			S90.487,38.232,79.947,38.232z M79.947,4.509c-8.054,0-14.606,6.553-14.606,14.607s6.553,14.607,14.606,14.607
			c8.054,0,14.607-6.553,14.607-14.607S88.001,4.509,79.947,4.509z"/>
	</g>
	<g>
		<path class="st0" d="M42.698,155.182V120.99h22.893v6.463H50.394v7.155h13.519v6.463H50.394v14.11H42.698z"/>
		<path class="st0" d="M67.924,142.404c0-2.302,0.353-4.318,1.061-6.044c0.707-1.727,1.635-3.166,2.787-4.318
			c1.151-1.15,2.474-2.022,3.972-2.615c1.497-0.592,3.035-0.888,4.613-0.888c3.684,0,6.594,1.127,8.733,3.38
			c2.138,2.254,3.207,5.567,3.207,9.942c0,0.427-0.017,0.896-0.05,1.406c-0.033,0.51-0.066,0.962-0.099,1.356H75.473
			c0.165,1.514,0.871,2.714,2.122,3.602c1.25,0.888,2.927,1.332,5.032,1.332c1.349,0,2.672-0.123,3.972-0.37
			c1.299-0.247,2.359-0.55,3.182-0.913l0.986,5.969c-0.395,0.198-0.921,0.395-1.579,0.592c-0.658,0.198-1.39,0.37-2.195,0.519
			c-0.806,0.148-1.67,0.271-2.59,0.37c-0.921,0.099-1.842,0.148-2.763,0.148c-2.336,0-4.366-0.345-6.093-1.036
			c-1.727-0.69-3.158-1.636-4.292-2.837c-1.135-1.2-1.974-2.622-2.517-4.267C68.195,146.087,67.924,144.312,67.924,142.404z
			 M85.193,139.591c-0.033-0.624-0.14-1.233-0.321-1.825c-0.181-0.592-0.461-1.119-0.838-1.579c-0.379-0.46-0.856-0.839-1.431-1.135
			c-0.576-0.296-1.291-0.444-2.146-0.444c-0.822,0-1.529,0.14-2.121,0.418c-0.592,0.281-1.085,0.651-1.48,1.111
			c-0.395,0.461-0.699,0.995-0.913,1.603c-0.215,0.61-0.37,1.226-0.469,1.851H85.193z"/>
	</g>
	<g>
		<path class="st0" d="M155.26,57.451c-1.366-2.425-2.844-4.821-4.434-7.187c-1.59-2.364-3.282-4.596-5.076-6.697v13.883h-4.71
			V36.259h3.884c0.673,0.673,1.416,1.498,2.232,2.477c0.815,0.978,1.646,2.023,2.492,3.134c0.845,1.111,1.687,2.262,2.523,3.456
			c0.836,1.192,1.621,2.338,2.354,3.439V36.259h4.74v21.191H155.26z"/>
		<path class="st0" d="M169.298,40.938c1.346,0,2.467,0.152,3.364,0.458c0.897,0.306,1.616,0.744,2.156,1.316
			c0.54,0.57,0.922,1.264,1.147,2.079c0.224,0.816,0.336,1.723,0.336,2.723v9.479c-0.653,0.143-1.559,0.312-2.721,0.505
			c-1.162,0.193-2.569,0.291-4.22,0.291c-1.039,0-1.983-0.092-2.828-0.275c-0.847-0.184-1.575-0.484-2.186-0.903
			c-0.612-0.417-1.081-0.963-1.407-1.636c-0.326-0.673-0.489-1.498-0.489-2.477c0-0.937,0.188-1.733,0.566-2.385
			c0.377-0.653,0.882-1.172,1.514-1.56c0.632-0.388,1.356-0.667,2.171-0.841c0.815-0.173,1.661-0.26,2.538-0.26
			c0.591,0,1.116,0.025,1.575,0.076c0.459,0.052,0.831,0.118,1.116,0.199v-0.428c0-0.774-0.234-1.396-0.703-1.865
			c-0.469-0.469-1.284-0.703-2.446-0.703c-0.775,0-1.54,0.056-2.294,0.168c-0.754,0.112-1.406,0.27-1.957,0.473l-0.581-3.669
			c0.265-0.081,0.597-0.168,0.994-0.26c0.397-0.091,0.831-0.173,1.3-0.244c0.469-0.072,0.963-0.133,1.483-0.184
			C168.244,40.963,168.768,40.938,169.298,40.938z M169.665,54.27c0.448,0,0.876-0.01,1.284-0.031
			c0.408-0.02,0.734-0.051,0.979-0.091v-3.456c-0.183-0.041-0.459-0.08-0.826-0.122c-0.367-0.041-0.703-0.061-1.009-0.061
			c-0.428,0-0.831,0.025-1.208,0.076c-0.377,0.052-0.708,0.149-0.994,0.291c-0.286,0.143-0.51,0.337-0.673,0.581
			c-0.163,0.244-0.245,0.55-0.245,0.917c0,0.713,0.239,1.208,0.719,1.483C168.172,54.132,168.829,54.27,169.665,54.27z"/>
	</g>
</g>
</svg>