<!-- Generator: Adobe Illustrator 22.0.1, SVG Export Plug-In  -->
<svg version="1.1"
	 xmlns="http://www.w3.org/2000/svg" xmlns:xlink="http://www.w3.org/1999/xlink" xmlns:a="http://ns.adobe.com/AdobeSVGViewerExtensions/3.0/"
	 x="0px" y="0px" width="31.02px" height="31.02px" viewBox="0 0 31.02 31.02" style="enable-background:new 0 0 31.02 31.02;"
	 xml:space="preserve">
<style type="text/css">
	.st0{fill:none;stroke:#FFFFFF;stroke-width:0.9124;stroke-miterlimit:10;}
</style>
<defs>
</defs>
<g>
	<path class="st0" d="M17.779,0.861c0,0-5.508,5.288-3.907,9.797c0.675,1.901,2.502,3.869,4.285,0.642
		C19.152,9.498,19.3,6.429,17.779,0.861z"/>
	<path class="st0" d="M30.16,13.241c0,0-5.288,5.508-9.797,3.907c-1.901-0.675-3.869-2.502-0.642-4.285
		C21.522,11.869,24.591,11.721,30.16,13.241z"/>
	<path class="st0" d="M11.066,7.574c0,0-5.508,5.288-3.907,9.797c0.675,1.901,2.502,3.869,4.285,0.642
		C12.439,16.212,12.587,13.142,11.066,7.574z"/>
	<path class="st0" d="M23.447,19.954c0,0-5.288,5.508-9.797,3.907c-1.901-0.675-3.869-2.502-0.642-4.285
		C14.809,18.582,17.878,18.434,23.447,19.954z"/>
	<path class="st0" d="M4.655,13.985c0,0-5.508,5.288-3.907,9.797c0.675,1.901,2.502,3.869,4.285,0.642
		C6.028,22.622,6.176,19.553,4.655,13.985z"/>
	<path class="st0" d="M17.036,26.365c0,0-5.288,5.508-9.797,3.907c-1.901-0.675-3.869-2.502-0.642-4.285
		C8.398,24.993,11.467,24.844,17.036,26.365z"/>
	<path class="st0" d="M29.419,0.856c0,0-0.64,7.608-5.151,9.204c-1.901,0.672-3.726-0.984-3.197-2.924
		C21.613,5.15,24.136,3.181,29.419,0.856z"/>
</g>
</svg>