<!-- Generator: Adobe Illustrator 22.1.0, SVG Export Plug-In  -->
<svg version="1.1"
	 xmlns="http://www.w3.org/2000/svg" xmlns:xlink="http://www.w3.org/1999/xlink" xmlns:a="http://ns.adobe.com/AdobeSVGViewerExtensions/3.0/"
	 x="0px" y="0px" width="110.52px" height="208.786px" viewBox="0 0 110.52 208.786"
	 style="enable-background:new 0 0 110.52 208.786;" xml:space="preserve">
<style type="text/css">
	.st0{fill:none;stroke:#FFFFFF;stroke-width:5;stroke-linecap:round;stroke-linejoin:round;stroke-miterlimit:10;}
</style>
<defs>
</defs>
<g>
	<g>
		<path class="st0" d="M51.702,4.712c0,0,1.28,52.416,0,61.083c-0.817,5.535-7.811,19.54-12.759,28.94
			c-3.257,6.186-4.945,13.077-4.945,20.069v79.613c0,2.336-0.424,4.669-1.386,6.798c-1.013,2.24-2.666,4.092-5.226,4.092
			s-4.213-1.853-5.226-4.092c-0.963-2.128-1.386-4.462-1.386-6.798v-79.613c0-6.991-1.688-13.882-4.945-20.069
			c-4.948-9.4-11.942-23.405-12.759-28.94c-1.28-8.667,0-61.083,0-61.083"/>
		<line class="st0" x1="19.067" y1="4.712" x2="19.067" y2="61.956"/>
		<line class="st0" x1="35.064" y1="4.712" x2="35.064" y2="61.956"/>
	</g>
	<path class="st0" d="M77.063,2.5v189.346c0,19.358,13.903,15.282,13.903,10.336v-89.574c0-3.434,0.857-6.838,2.586-9.963
		c4.655-8.413,14.469-18.541,14.469-43.624C108.02,28.148,95.6,2.5,77.063,2.5z"/>
</g>
</svg>