<!-- Generator: Adobe Illustrator 22.1.0, SVG Export Plug-In  -->
<svg version="1.1"
	 xmlns="http://www.w3.org/2000/svg" xmlns:xlink="http://www.w3.org/1999/xlink" xmlns:a="http://ns.adobe.com/AdobeSVGViewerExtensions/3.0/"
	 x="0px" y="0px" width="99.73px" height="260.265px" viewBox="0 0 99.73 260.265"
	 style="enable-background:new 0 0 99.73 260.265;" xml:space="preserve">
<style type="text/css">
	.st0{fill:#FFFFFF;}
</style>
<defs>
</defs>
<g>
	<path class="st0" d="M99.728,77.792c-0.413-9.017-3.255-17.74-8.224-25.263l-0.117-0.178c-0.071-0.107-0.143-0.214-0.216-0.32
		l-0.588-0.868h-0.015c-4.605-6.493-10.712-11.791-17.758-15.474V15.044C72.808,6.749,66.06,0,57.765,0H43.42
		c-8.295,0-15.044,6.749-15.044,15.044v19.706h-0.115l-0.407,0.196c-8.493,4.094-15.64,10.475-20.667,18.45
		C3.47,59.273,1.059,65.725,0.022,72.572L0,72.719v160.478c0,14.926,12.143,27.068,27.068,27.068h45.594
		c14.925,0,27.068-12.142,27.068-27.068V77.883L99.728,77.792z M32.332,15.044c0-6.114,4.974-11.089,11.089-11.089h14.344
		c6.115,0,11.089,4.974,11.089,11.089v19.706H32.332V15.044z M95.775,233.197c0,12.744-10.368,23.113-23.113,23.113H27.068
		c-12.745,0-23.113-10.369-23.113-23.113V73.018c0.966-6.248,3.178-12.138,6.577-17.511c4.541-7.205,10.959-12.995,18.581-16.774
		h41.01c6.968,3.457,12.975,8.632,17.427,15.016l0.499,0.839l0.422,0.529c4.403,6.822,6.924,14.685,7.304,22.81V233.197z"/>
	<path class="st0" d="M77.573,117.085c-0.378,0.348-0.685,0.839-0.92,1.472c-0.235,0.634-0.404,1.385-0.505,2.253
		c-0.103,0.869-0.153,1.835-0.153,2.897s0.051,2.033,0.153,2.912c0.102,0.879,0.271,1.636,0.505,2.269
		c0.235,0.634,0.542,1.124,0.92,1.472c0.378,0.348,0.853,0.521,1.425,0.521s1.053-0.173,1.441-0.521s0.695-0.838,0.92-1.472
		c0.225-0.633,0.388-1.39,0.49-2.269c0.102-0.879,0.153-1.85,0.153-2.912s-0.051-2.028-0.153-2.897
		c-0.103-0.868-0.266-1.619-0.49-2.253c-0.225-0.633-0.532-1.124-0.92-1.472c-0.388-0.347-0.869-0.521-1.441-0.521
		S77.951,116.739,77.573,117.085z"/>
	<path class="st0" d="M72.869,49.733l-35.787,0.393c-11.405,0-11.056,23.406-11.056,26.911v154.173
		c0,18.695,4.37,21.727,20.472,21.727h23.778c8.846,0,20.472-7.057,20.472-21.727V84.796C90.748,70.362,84.274,49.733,72.869,49.733
		z M50.428,134.375h-4.782v-9.013h-8.032v9.013h-4.782v-21.244h4.782v8.123h8.032v-8.123h4.782V134.375z M68.729,134.375H54.566
		c-0.041-0.225-0.062-0.511-0.062-0.858s0-0.593,0-0.735c0-0.981,0.158-1.881,0.476-2.698c0.316-0.817,0.73-1.578,1.241-2.283
		s1.088-1.364,1.732-1.978c0.644-0.613,1.282-1.227,1.916-1.84c0.491-0.47,0.951-0.914,1.38-1.333s0.807-0.828,1.134-1.227
		c0.327-0.398,0.583-0.797,0.766-1.195c0.184-0.398,0.276-0.802,0.276-1.211c0-0.899-0.256-1.533-0.766-1.9
		c-0.511-0.368-1.145-0.552-1.901-0.552c-0.552,0-1.068,0.087-1.548,0.26c-0.48,0.174-0.92,0.379-1.318,0.613
		c-0.398,0.235-0.741,0.471-1.027,0.705c-0.287,0.235-0.501,0.425-0.644,0.567l-2.269-3.188c0.899-0.838,1.947-1.527,3.143-2.069
		c1.195-0.541,2.478-0.812,3.847-0.812c1.246,0,2.319,0.143,3.219,0.429c0.899,0.286,1.64,0.689,2.223,1.211s1.012,1.155,1.288,1.9
		c0.276,0.746,0.414,1.59,0.414,2.529c0,0.777-0.153,1.522-0.459,2.238c-0.307,0.715-0.705,1.405-1.196,2.068
		c-0.491,0.665-1.042,1.304-1.655,1.916c-0.613,0.613-1.216,1.196-1.809,1.748c-0.307,0.286-0.639,0.608-0.997,0.966
		c-0.358,0.357-0.7,0.72-1.027,1.088c-0.327,0.368-0.619,0.71-0.874,1.027c-0.256,0.316-0.414,0.577-0.476,0.781h9.136V134.375z
		 M84.624,115.507c1.359,1.911,2.039,4.644,2.039,8.2c0,3.576-0.68,6.32-2.039,8.23c-1.359,1.911-3.234,2.866-5.625,2.866
		s-4.266-0.955-5.625-2.866c-1.359-1.91-2.039-4.654-2.039-8.23c0-1.778,0.179-3.352,0.536-4.721s0.874-2.524,1.548-3.465
		c0.674-0.939,1.481-1.655,2.422-2.146c0.939-0.49,1.993-0.735,3.157-0.735C81.39,112.641,83.265,113.596,84.624,115.507z"/>
</g>
</svg>